<svg id="Layer_1" data-name="Layer 1" xmlns="http://www.w3.org/2000/svg" viewBox="0 0 160 24.2"><defs><style>.cls-1{fill:#fff;}</style></defs><title>redis-enterprise-reversed-RGB1</title><path class="cls-1" d="M53.28,12.14A6.37,6.37,0,1,1,66,11.66v.1a.61.61,0,0,1-.65.59H54.57a5.17,5.17,0,0,0,5.1,5A4.92,4.92,0,0,0,63.91,15a.63.63,0,0,1,.86-.21.68.68,0,0,1,.22.91,6.27,6.27,0,0,1-5.32,3A6.48,6.48,0,0,1,53.28,12.14Zm1.37-1.05h10a5.08,5.08,0,0,0-4.94-4.27A5.13,5.13,0,0,0,54.65,11.09Z"/><path class="cls-1" d="M76.75,10.9a4,4,0,0,0-4.06-4.05,4.12,4.12,0,0,0-4.08,4.05v7.25a.63.63,0,0,1-.13.3.59.59,0,0,1-.49.24h-.16a.69.69,0,0,1-.43-.35.08.08,0,0,1,0-.08.12.12,0,0,0,0-.05V6.2a.63.63,0,1,1,1.26,0V7.47A5.34,5.34,0,0,1,78,10.9v7.15a.64.64,0,0,1-.65.64.63.63,0,0,1-.64-.64Z"/><path class="cls-1" d="M84.64,6.18a.69.69,0,0,1-.64.64H82.3v9.59a1,1,0,0,0,1,1,.74.74,0,0,1,.67.67.72.72,0,0,1-.67.64A2.24,2.24,0,0,1,81,16.41V6.82H79.32c-.64,0-.64-.32-.64-.64s0-.65.64-.65H81V.64A.69.69,0,0,1,81.6,0a.72.72,0,0,1,.7.64V5.53H84A.69.69,0,0,1,84.64,6.18Z"/><path class="cls-1" d="M86.09,12.14a6.37,6.37,0,1,1,12.73-.48v.1a.61.61,0,0,1-.65.59H87.38a5.17,5.17,0,0,0,5.1,5A4.92,4.92,0,0,0,96.72,15a.63.63,0,0,1,.86-.21.68.68,0,0,1,.22.91,6.27,6.27,0,0,1-5.32,3A6.47,6.47,0,0,1,86.09,12.14Zm1.37-1.05h10a5.08,5.08,0,0,0-4.94-4.27A5.13,5.13,0,0,0,87.46,11.09Z"/><path class="cls-1" d="M100.13,6.2a.65.65,0,0,1,1.29,0V9.1a2.23,2.23,0,0,1,.19-.32,6.34,6.34,0,0,1,5.26-3.22.63.63,0,0,1,.64.64.65.65,0,0,1-.64.65A4.74,4.74,0,0,0,103.06,9a11.77,11.77,0,0,0-1.59,3.06.43.43,0,0,0,0,.21v5.78a.65.65,0,0,1-1.29,0Z"/><path class="cls-1" d="M109.23,12.33V6.18a.66.66,0,0,1,1.32,0v1.9a6.21,6.21,0,0,1,5-2.55,6.44,6.44,0,0,1,6.37,6.53,6.47,6.47,0,0,1-6.37,6.55,6.16,6.16,0,0,1-5-2.58v7.52a.66.66,0,0,1-1.32,0Zm1.32-.27a5,5,0,1,0,10,0,5,5,0,1,0-10-.22Z"/><path class="cls-1" d="M123.73,6.2a.65.65,0,0,1,1.29,0V9.1a2.23,2.23,0,0,1,.19-.32,6.34,6.34,0,0,1,5.26-3.22.63.63,0,0,1,.64.64.65.65,0,0,1-.64.65A4.74,4.74,0,0,0,126.66,9a11.77,11.77,0,0,0-1.59,3.06.43.43,0,0,0,0,.21v5.78a.65.65,0,0,1-1.29,0Z"/><path class="cls-1" d="M132.86,1.88a.64.64,0,0,1,.64-.64.65.65,0,0,1,.67.64V2.5a.66.66,0,1,1-1.31,0Zm0,4.3a.63.63,0,0,1,.64-.65.64.64,0,0,1,.67.65V18.05a.65.65,0,0,1-.67.64.64.64,0,0,1-.64-.64Z"/><path class="cls-1" d="M136.78,16a.64.64,0,0,1,.91-.08,7,7,0,0,0,4,1.53,4,4,0,0,0,2.5-.8,2,2,0,0,0,1-1.61,2.11,2.11,0,0,0-.94-1.62,6.44,6.44,0,0,0-2.79-1l-.06,0a7.37,7.37,0,0,1-3-1A2.74,2.74,0,0,1,137,9a3.27,3.27,0,0,1,1.42-2.58,5.64,5.64,0,0,1,3.22-.89A7,7,0,0,1,145.58,7a.67.67,0,0,1,.19.91.64.64,0,0,1-.88.19,5.75,5.75,0,0,0-3.23-1.32,4,4,0,0,0-2.49.75A2,2,0,0,0,138.33,9a1.6,1.6,0,0,0,.76,1.31,6.5,6.5,0,0,0,2.68.92h.06A9,9,0,0,1,145,12.3,3.28,3.28,0,0,1,146.5,15a3.34,3.34,0,0,1-1.5,2.65,5.34,5.34,0,0,1-3.28,1.05,7.94,7.94,0,0,1-4.86-1.88A.6.6,0,0,1,136.78,16Z"/><path class="cls-1" d="M147.27,12.14A6.37,6.37,0,1,1,160,11.66v.1a.6.6,0,0,1-.64.59h-10.8a5.18,5.18,0,0,0,5.11,5A5,5,0,0,0,157.91,15a.63.63,0,0,1,.86-.21.68.68,0,0,1,.21.91,6.24,6.24,0,0,1-5.31,3A6.48,6.48,0,0,1,147.27,12.14Zm1.37-1.05h10a5.09,5.09,0,0,0-4.94-4.27A5.15,5.15,0,0,0,148.64,11.09Z"/><path class="cls-1" d="M3,7.25A4.8,4.8,0,0,1,4.72,6.07a5.54,5.54,0,0,1,2-.44A1.82,1.82,0,0,1,8,6.07a1.33,1.33,0,0,1,.44,1,1.46,1.46,0,0,1-.44,1,1.34,1.34,0,0,1-1,.44C5.31,8.73,3,10.42,3,12.71V18a1.46,1.46,0,0,1-.44,1,1.46,1.46,0,0,1-1,.45,1.34,1.34,0,0,1-1-.45A1.46,1.46,0,0,1,0,18V7A1.46,1.46,0,0,1,.44,6a2,2,0,0,1,1.11-.37,1.34,1.34,0,0,1,1,.44A1.33,1.33,0,0,1,3,7.1Z"/><path class="cls-1" d="M20.91,12.05a1.41,1.41,0,0,1-.37,1,1.68,1.68,0,0,1-1,.44H10.8a2.78,2.78,0,0,0,1,1.77,3.94,3.94,0,0,0,2.58,1.26,3.88,3.88,0,0,0,2.88-.67,1.5,1.5,0,0,1,1.1-.44,1.27,1.27,0,0,1,1,.37,1.2,1.2,0,0,1,0,1.77,6.69,6.69,0,0,1-4.79,1.77,6.28,6.28,0,0,1-4.8-2.07,7.26,7.26,0,0,1-2-4.87,6.62,6.62,0,0,1,2-4.87,6.17,6.17,0,0,1,4.65-2,6,6,0,0,1,4.57,1.85A6.77,6.77,0,0,1,21,11.9v.15ZM14.34,8.14a3.85,3.85,0,0,0-2.51,1A3.63,3.63,0,0,0,10.65,11H18.4a3.36,3.36,0,0,0-1.33-1.85,4.71,4.71,0,0,0-2.73-1"/><path class="cls-1" d="M34.8,17.8a1.5,1.5,0,0,1-1.47,1.48,1.41,1.41,0,0,1-1-.37,1.42,1.42,0,0,1-.52-.81,6.33,6.33,0,0,1-3.76,1.18,6.42,6.42,0,0,1-4.72-2,6.56,6.56,0,0,1-1.92-4.87,7,7,0,0,1,1.92-4.87,6.46,6.46,0,0,1,4.72-2.07,6.12,6.12,0,0,1,3.69,1.18V1.5a1.37,1.37,0,0,1,.44-1,1.48,1.48,0,0,1,1-.44,1.37,1.37,0,0,1,1,.44,1.5,1.5,0,0,1,.44,1V17.8Zm-6.64-1.47a3.26,3.26,0,0,0,2.58-1.18,3.91,3.91,0,0,0,0-5.46,3.5,3.5,0,0,0-2.58-1.18,3.18,3.18,0,0,0-2.58,1.18,3.91,3.91,0,0,0,0,5.46,3.43,3.43,0,0,0,2.58,1.18"/><path class="cls-1" d="M39.16,1.5v.59a1.47,1.47,0,0,1-.45,1.1,1.26,1.26,0,0,1-1,.37,1.31,1.31,0,0,1-1-.44A1.48,1.48,0,0,1,36.2,2V1.5a1.47,1.47,0,0,1,.45-1,1.46,1.46,0,0,1,1-.44,1.34,1.34,0,0,1,1,.44,1.34,1.34,0,0,1,.45,1M36.65,6a1.42,1.42,0,0,1,1-.44,1.31,1.31,0,0,1,1,.44,1.47,1.47,0,0,1,.45,1.1V17.88a1.23,1.23,0,0,1-.45,1,1.42,1.42,0,0,1-1,.44,1.31,1.31,0,0,1-1-.44,1.45,1.45,0,0,1-.45-1V7.1A1.47,1.47,0,0,1,36.65,6"/><path class="cls-1" d="M49.63,7a1.44,1.44,0,0,1,.59.89A1.92,1.92,0,0,1,50.08,9a1.46,1.46,0,0,1-.89.59,1.5,1.5,0,0,1-1.11-.22,5.14,5.14,0,0,0-2.5-1A2.38,2.38,0,0,0,44,8.88c-.29.22-.44.36-.44.51s0,.3.07.37a1.11,1.11,0,0,0,.3.22,4.37,4.37,0,0,0,2,.67h0a9.93,9.93,0,0,1,2.66.81A3.67,3.67,0,0,1,50.3,13a3.83,3.83,0,0,1,.59,1.92,3.86,3.86,0,0,1-1.7,3.17,5.91,5.91,0,0,1-3.54,1.11,7.71,7.71,0,0,1-4.87-1.92,1.55,1.55,0,0,1-.52-1,1.39,1.39,0,0,1,1.26-1.55,1.22,1.22,0,0,1,1,.29,4.25,4.25,0,0,0,3,1.18,3.16,3.16,0,0,0,1.84-.51c.29-.3.52-.52.52-.74s0-.3-.08-.37-.15-.22-.37-.29a5.41,5.41,0,0,0-2.21-.74h0a8.05,8.05,0,0,1-2.51-.81A4.51,4.51,0,0,1,41,11.24a3.5,3.5,0,0,1-.44-1.7,3.64,3.64,0,0,1,1.62-3,6,6,0,0,1,3.4-1A8.51,8.51,0,0,1,49.63,7"/></svg>