<svg id="Layer_1" data-name="Layer 1" xmlns="http://www.w3.org/2000/svg" viewBox="0 0 160 35.16"><defs><style>.cls-1{fill:#fff;}</style></defs><title>redis-enterprise-software-reversed-RGB1</title><path class="cls-1" d="M53.28,12.14A6.37,6.37,0,0,1,66,11.65v.11a.61.61,0,0,1-.65.59H54.57a5.18,5.18,0,0,0,5.1,5A4.93,4.93,0,0,0,63.91,15a.63.63,0,0,1,.86-.22.7.7,0,0,1,.22.92,6.27,6.27,0,0,1-5.32,3A6.48,6.48,0,0,1,53.28,12.14Zm1.37-1.05h10a5.08,5.08,0,0,0-4.94-4.27A5.13,5.13,0,0,0,54.65,11.09Z"/><path class="cls-1" d="M76.74,10.9a4,4,0,0,0-4-4.05,4.12,4.12,0,0,0-4.08,4.05v7.25a.66.66,0,0,1-.62.54h-.16a.72.72,0,0,1-.43-.35.09.09,0,0,1,0-.08.13.13,0,0,0,0-.06V6.2a.63.63,0,1,1,1.26,0V7.46A5.34,5.34,0,0,1,78,10.9V18a.63.63,0,0,1-.64.65.64.64,0,0,1-.65-.65Z"/><path class="cls-1" d="M84.64,6.18a.69.69,0,0,1-.65.64H82.3v9.59a1,1,0,0,0,1,1,.75.75,0,0,1,.67.67.72.72,0,0,1-.67.65A2.24,2.24,0,0,1,81,16.41V6.82H79.32c-.64,0-.64-.32-.64-.64s0-.65.64-.65H81V.64A.69.69,0,0,1,81.6,0a.72.72,0,0,1,.7.64V5.53H84A.69.69,0,0,1,84.64,6.18Z"/><path class="cls-1" d="M86.09,12.14a6.36,6.36,0,1,1,12.72-.49v.11a.6.6,0,0,1-.64.59H87.38a5.18,5.18,0,0,0,5.1,5A5,5,0,0,0,96.72,15a.63.63,0,0,1,.86-.22.7.7,0,0,1,.21.92,6.24,6.24,0,0,1-5.31,3A6.48,6.48,0,0,1,86.09,12.14Zm1.37-1.05h10a5,5,0,0,0-10,0Z"/><path class="cls-1" d="M100.13,6.2a.65.65,0,0,1,1.29,0V9.1a2.23,2.23,0,0,1,.19-.32,6.32,6.32,0,0,1,5.26-3.22.63.63,0,0,1,.64.64.65.65,0,0,1-.64.65A4.71,4.71,0,0,0,103.06,9a11.77,11.77,0,0,0-1.59,3.06.41.41,0,0,0,0,.21V18a.65.65,0,1,1-1.29,0Z"/><path class="cls-1" d="M109.23,12.32V6.18a.66.66,0,0,1,.64-.65.67.67,0,0,1,.68.65v1.9a6.21,6.21,0,0,1,5-2.55,6.43,6.43,0,0,1,6.36,6.53,6.47,6.47,0,0,1-6.36,6.55,6.16,6.16,0,0,1-5-2.58v7.52a.66.66,0,0,1-.68.64.65.65,0,0,1-.64-.64Zm1.32-.26a5,5,0,1,0,10,0,5,5,0,1,0-10-.22Z"/><path class="cls-1" d="M123.73,6.2a.65.65,0,0,1,1.29,0V9.1a2.11,2.11,0,0,1,.18-.32,6.35,6.35,0,0,1,5.27-3.22.63.63,0,0,1,.64.64.65.65,0,0,1-.64.65A4.75,4.75,0,0,0,126.65,9a12,12,0,0,0-1.58,3.06.41.41,0,0,0,0,.21V18a.65.65,0,1,1-1.29,0Z"/><path class="cls-1" d="M132.86,1.88a.64.64,0,0,1,.64-.64.65.65,0,0,1,.67.64V2.5a.66.66,0,1,1-1.31,0Zm0,4.3a.63.63,0,0,1,.64-.65.64.64,0,0,1,.67.65V18a.66.66,0,0,1-1.31,0Z"/><path class="cls-1" d="M136.78,16a.64.64,0,0,1,.91-.08,7,7,0,0,0,4,1.53,3.91,3.91,0,0,0,2.49-.81,2,2,0,0,0,1-1.61,2.11,2.11,0,0,0-.94-1.61,6.54,6.54,0,0,0-2.8-1l-.05,0a7.69,7.69,0,0,1-3-1A2.75,2.75,0,0,1,137,9a3.25,3.25,0,0,1,1.42-2.58,5.64,5.64,0,0,1,3.22-.89A7.1,7.1,0,0,1,145.58,7a.69.69,0,0,1,.19.92.66.66,0,0,1-.89.19,5.69,5.69,0,0,0-3.22-1.32,3.91,3.91,0,0,0-2.49.75A2,2,0,0,0,138.33,9a1.59,1.59,0,0,0,.75,1.31,6.61,6.61,0,0,0,2.69.91h0A9.14,9.14,0,0,1,145,12.3,3.27,3.27,0,0,1,146.5,15,3.35,3.35,0,0,1,145,17.64a5.35,5.35,0,0,1-3.27,1.05,8,8,0,0,1-4.86-1.88A.6.6,0,0,1,136.78,16Z"/><path class="cls-1" d="M147.27,12.14A6.37,6.37,0,0,1,160,11.65v.11a.61.61,0,0,1-.64.59h-10.8a5.18,5.18,0,0,0,5.1,5A5,5,0,0,0,157.91,15a.62.62,0,0,1,.85-.22.69.69,0,0,1,.22.92,6.27,6.27,0,0,1-5.32,3A6.48,6.48,0,0,1,147.27,12.14Zm1.37-1.05h10a5.08,5.08,0,0,0-4.94-4.27A5.14,5.14,0,0,0,148.64,11.09Z"/><path class="cls-1" d="M3,7.25A4.56,4.56,0,0,1,4.72,6.07a5.33,5.33,0,0,1,2-.44A1.78,1.78,0,0,1,8,6.07a1.31,1.31,0,0,1,.44,1,1.42,1.42,0,0,1-.44,1,1.32,1.32,0,0,1-1,.45C5.31,8.72,3,10.42,3,12.71V18a1.46,1.46,0,0,1-.44,1,1.45,1.45,0,0,1-1,.44,1.33,1.33,0,0,1-1-.44A1.46,1.46,0,0,1,0,18V7A1.5,1.5,0,0,1,.44,6a2,2,0,0,1,1.11-.36,1.31,1.31,0,0,1,1,.44A1.32,1.32,0,0,1,3,7.1Z"/><path class="cls-1" d="M20.91,12a1.41,1.41,0,0,1-.37,1,1.63,1.63,0,0,1-1,.45H10.8a2.81,2.81,0,0,0,1,1.77,3.94,3.94,0,0,0,2.58,1.25,3.84,3.84,0,0,0,2.88-.66,1.46,1.46,0,0,1,1.1-.44,1.26,1.26,0,0,1,1,.36,1.2,1.2,0,0,1,0,1.77,6.66,6.66,0,0,1-4.79,1.78,6.28,6.28,0,0,1-4.8-2.07,7.26,7.26,0,0,1-2-4.87,6.62,6.62,0,0,1,2-4.87,6.13,6.13,0,0,1,4.65-2,6,6,0,0,1,4.57,1.84A6.78,6.78,0,0,1,21,11.9V12ZM14.34,8.13a3.9,3.9,0,0,0-2.51,1A3.67,3.67,0,0,0,10.65,11H18.4a3.38,3.38,0,0,0-1.33-1.84,4.78,4.78,0,0,0-2.73-1"/><path class="cls-1" d="M34.8,17.8a1.42,1.42,0,0,1-.44,1,1.45,1.45,0,0,1-1,.45,1.59,1.59,0,0,1-1.48-1.19,6.27,6.27,0,0,1-3.76,1.19,6.39,6.39,0,0,1-4.72-2,6.54,6.54,0,0,1-1.92-4.87,7,7,0,0,1,1.92-4.87,6.48,6.48,0,0,1,4.72-2.06,6.12,6.12,0,0,1,3.69,1.18V1.49a1.36,1.36,0,0,1,.44-1,1.48,1.48,0,0,1,1-.44,1.37,1.37,0,0,1,1,.44,1.49,1.49,0,0,1,.44,1V17.8Zm-6.64-1.48a3.23,3.23,0,0,0,2.58-1.18,3.91,3.91,0,0,0,0-5.46A3.53,3.53,0,0,0,28.16,8.5a3.18,3.18,0,0,0-2.58,1.18,3.91,3.91,0,0,0,0,5.46,3.4,3.4,0,0,0,2.58,1.18"/><path class="cls-1" d="M39.16,1.49v.59a1.48,1.48,0,0,1-.45,1.11,1.26,1.26,0,0,1-1,.37,1.34,1.34,0,0,1-1-.44A1.51,1.51,0,0,1,36.2,2V1.49a1.46,1.46,0,0,1,.45-1,1.46,1.46,0,0,1,1-.44,1.34,1.34,0,0,1,1,.44,1.33,1.33,0,0,1,.45,1M36.65,6a1.46,1.46,0,0,1,1-.44,1.34,1.34,0,0,1,1,.44,1.51,1.51,0,0,1,.45,1.11V17.87a1.23,1.23,0,0,1-.45,1,1.46,1.46,0,0,1-1,.44,1.34,1.34,0,0,1-1-.44,1.47,1.47,0,0,1-.45-1V7.1A1.51,1.51,0,0,1,36.65,6"/><path class="cls-1" d="M49.63,7a1.41,1.41,0,0,1,.59.88A2,2,0,0,1,50.08,9a1.51,1.51,0,0,1-.89.59,1.55,1.55,0,0,1-1.11-.22,5,5,0,0,0-2.51-1A2.37,2.37,0,0,0,44,8.87c-.29.22-.44.37-.44.52a.59.59,0,0,0,.07.37,1.11,1.11,0,0,0,.3.22,4.38,4.38,0,0,0,2,.66h0a10.71,10.71,0,0,1,2.66.81A3.72,3.72,0,0,1,50.3,13a3.89,3.89,0,0,1,.59,1.92,3.84,3.84,0,0,1-1.7,3.17,5.91,5.91,0,0,1-3.54,1.11,7.66,7.66,0,0,1-4.87-1.92,1.55,1.55,0,0,1-.52-1,1.42,1.42,0,0,1,2.29-1.25,4.29,4.29,0,0,0,3,1.18,3.18,3.18,0,0,0,1.85-.52c.29-.29.52-.51.52-.73s0-.3-.08-.37-.15-.22-.37-.3a5.56,5.56,0,0,0-2.21-.74h0a7.56,7.56,0,0,1-2.51-.81A4.44,4.44,0,0,1,41,11.23a3.44,3.44,0,0,1-.44-1.69,3.62,3.62,0,0,1,1.62-3,6,6,0,0,1,3.39-1A8.4,8.4,0,0,1,49.63,7"/><path class="cls-1" d="M79,28.18a.32.32,0,0,1-.11.12.23.23,0,0,1-.15.05.42.42,0,0,1-.22-.1,2.75,2.75,0,0,0-.33-.21,2.6,2.6,0,0,0-.47-.22,2.17,2.17,0,0,0-.67-.09,1.91,1.91,0,0,0-.66.1,1.21,1.21,0,0,0-.47.27,1.06,1.06,0,0,0-.29.4,1.35,1.35,0,0,0-.1.5.91.91,0,0,0,.17.56,1.44,1.44,0,0,0,.45.39,3.22,3.22,0,0,0,.62.28l.72.24a7.69,7.69,0,0,1,.72.28,2.7,2.7,0,0,1,.63.4,1.82,1.82,0,0,1,.44.58,1.89,1.89,0,0,1,.17.86,2.83,2.83,0,0,1-.18,1,2.46,2.46,0,0,1-.53.82,2.56,2.56,0,0,1-.87.54,3,3,0,0,1-1.16.2,3.4,3.4,0,0,1-1.44-.29,3.44,3.44,0,0,1-1.12-.77l.32-.53a.35.35,0,0,1,.11-.1.3.3,0,0,1,.15,0,.48.48,0,0,1,.27.13,3.64,3.64,0,0,0,.39.28,2.65,2.65,0,0,0,.56.29,2.32,2.32,0,0,0,.8.12,2.19,2.19,0,0,0,.7-.1,1.56,1.56,0,0,0,.52-.31,1.43,1.43,0,0,0,.33-.47,1.51,1.51,0,0,0,.11-.61,1,1,0,0,0-.16-.61,1.43,1.43,0,0,0-.45-.39,2.7,2.7,0,0,0-.62-.27l-.72-.23L75.69,31a2.64,2.64,0,0,1-.62-.4,1.75,1.75,0,0,1-.44-.62,2.31,2.31,0,0,1,0-1.74,2.16,2.16,0,0,1,.48-.72,2.37,2.37,0,0,1,.79-.5A2.85,2.85,0,0,1,77,26.81a3.52,3.52,0,0,1,1.25.21,3,3,0,0,1,1,.63Z"/><path class="cls-1" d="M92.05,31a4.56,4.56,0,0,1-.29,1.68A3.88,3.88,0,0,1,90.94,34a3.62,3.62,0,0,1-1.27.86,4.22,4.22,0,0,1-1.65.31,4.13,4.13,0,0,1-1.64-.31A3.53,3.53,0,0,1,85.11,34a3.9,3.9,0,0,1-.83-1.32A4.78,4.78,0,0,1,84,31a4.83,4.83,0,0,1,.29-1.69A3.9,3.9,0,0,1,85.11,28a3.53,3.53,0,0,1,1.27-.86A4.13,4.13,0,0,1,88,26.81a4.22,4.22,0,0,1,1.65.31,3.62,3.62,0,0,1,1.27.86,3.88,3.88,0,0,1,.82,1.32A4.62,4.62,0,0,1,92.05,31Zm-1.13,0a4.07,4.07,0,0,0-.21-1.35,3,3,0,0,0-.58-1,2.65,2.65,0,0,0-.91-.63,3.09,3.09,0,0,0-1.2-.22,3,3,0,0,0-1.19.22,2.69,2.69,0,0,0-.92.63,2.83,2.83,0,0,0-.58,1,4.44,4.44,0,0,0,0,2.7,2.87,2.87,0,0,0,.58,1,2.69,2.69,0,0,0,.92.63A3,3,0,0,0,88,34.2a3.09,3.09,0,0,0,1.2-.22,2.65,2.65,0,0,0,.91-.63,3,3,0,0,0,.58-1A4.07,4.07,0,0,0,90.92,31Z"/><path class="cls-1" d="M102.25,26.9v.9H98.33v2.86h3.35v.9H98.33v3.51H97.21V26.9Z"/><path class="cls-1" d="M112.89,26.9v.93h-2.64v7.24h-1.11V27.83h-2.65V26.9Z"/><path class="cls-1" d="M116.79,26.9h.92A.36.36,0,0,1,118,27a.31.31,0,0,1,.13.19l1.69,5.68a2.66,2.66,0,0,1,.08.33c0,.12.05.24.08.37,0-.13,0-.25.08-.37a1.59,1.59,0,0,1,.09-.33L122,27.16a.51.51,0,0,1,.13-.18.41.41,0,0,1,.24-.08h.32A.41.41,0,0,1,123,27a.43.43,0,0,1,.13.19L125,32.84a5.13,5.13,0,0,1,.18.68c0-.13,0-.25.07-.36a3,3,0,0,1,.07-.32L127,27.16a.38.38,0,0,1,.13-.18.41.41,0,0,1,.25-.08h.86l-2.55,8.17h-1l-2.07-6.23a3.44,3.44,0,0,1-.11-.41,1.74,1.74,0,0,0,0,.22l-.06.19-2.08,6.23h-1Z"/><path class="cls-1" d="M139.16,35.07h-.85a.36.36,0,0,1-.24-.07.45.45,0,0,1-.14-.19l-.76-2H133.5l-.76,2a.49.49,0,0,1-.14.18.35.35,0,0,1-.24.08h-.86l3.27-8.17h1.13Zm-5.35-3h3.05l-1.28-3.33a5,5,0,0,1-.25-.77c0,.16-.08.3-.12.43s-.08.25-.12.35Z"/><path class="cls-1" d="M145.06,31.66v3.41H144V26.9h2.31a5.27,5.27,0,0,1,1.34.15,2.53,2.53,0,0,1,.93.46,1.8,1.8,0,0,1,.55.71,2.64,2.64,0,0,1,0,1.75,2.22,2.22,0,0,1-.4.68,2.28,2.28,0,0,1-.63.51,3.06,3.06,0,0,1-.85.32,1.11,1.11,0,0,1,.37.35L150,35.07h-1a.51.51,0,0,1-.45-.23l-2.12-2.92a.57.57,0,0,0-.21-.2.74.74,0,0,0-.34-.06Zm0-.8h1.16a2.72,2.72,0,0,0,.85-.12,1.83,1.83,0,0,0,.62-.33,1.34,1.34,0,0,0,.37-.51,1.76,1.76,0,0,0,.13-.66,1.3,1.3,0,0,0-.49-1.1,2.3,2.3,0,0,0-1.43-.37h-1.21Z"/><path class="cls-1" d="M159.88,26.9v.9H156v2.71h3.18v.87H156v2.79h3.93v.9h-5V26.9Z"/></svg>