<svg id="Layer_1" data-name="Layer 1" xmlns="http://www.w3.org/2000/svg" xmlns:xlink="http://www.w3.org/1999/xlink" viewBox="0 0 100 31.99"><defs><style>.cls-1{fill:none;}.cls-2{fill:#fff;}.cls-3{clip-path:url(#clip-path);}.cls-4{fill:#a32321;}.cls-5{fill:#dc382d;}.cls-6{fill:#741012;}.cls-7{fill:#ac2823;}</style><clipPath id="clip-path"><rect class="cls-1" width="37.33" height="31.99"/></clipPath></defs><title>redis-logo-reversed-RGB</title><path class="cls-2" d="M54.56,10.11a1.48,1.48,0,0,1-1.46,1.47,2.63,2.63,0,0,0-1.66.52,4,4,0,0,0-1.27,1.33A8.31,8.31,0,0,0,49,15.75V21a1.5,1.5,0,0,1-1.51,1.46A1.47,1.47,0,0,1,46.05,21V10.11a1.45,1.45,0,0,1,1.47-1.43A1.47,1.47,0,0,1,49,10.11v.2a3.81,3.81,0,0,1,.58-.56A6.12,6.12,0,0,1,53.1,8.68,1.43,1.43,0,0,1,54.56,10.11Z"/><path class="cls-2" d="M54.31,15.55a6.84,6.84,0,0,1,6.74-6.9,6.61,6.61,0,0,1,6.66,6.41v.14a.66.66,0,0,1,0,.24,1.33,1.33,0,0,1-1.44,1.11H57.46a3.63,3.63,0,0,0,.94,1.82,4.27,4.27,0,0,0,2.65,1.25,4.54,4.54,0,0,0,2.87-.69A1.58,1.58,0,0,1,66,18.84a1.28,1.28,0,0,1,0,1.8,7,7,0,0,1-5,1.82A6.86,6.86,0,0,1,54.31,15.55Zm3-1.35h7.82a4.55,4.55,0,0,0-4.09-2.93A3.86,3.86,0,0,0,57.32,14.2Z"/><path class="cls-2" d="M82.54,21a1.5,1.5,0,0,1-1.49,1.49,1.47,1.47,0,0,1-1.46-1.19,6.74,6.74,0,0,1-3.76,1.19,6.91,6.91,0,0,1,0-13.81,6.52,6.52,0,0,1,3.7,1.16V4.62a1.51,1.51,0,0,1,3,0V21Zm-6.71-9.31a3.56,3.56,0,0,0-2.6,1.13,4,4,0,0,0,0,5.53,3.56,3.56,0,0,0,5.2,0,4,4,0,0,0,0-5.53A3.53,3.53,0,0,0,75.83,11.66Z"/><path class="cls-2" d="M87.54,5.2a1.49,1.49,0,0,1-1.49,1.51A1.5,1.5,0,0,1,84.56,5.2V4.62a1.49,1.49,0,0,1,1.49-1.5,1.47,1.47,0,0,1,1.49,1.5Zm0,5V21a1.46,1.46,0,0,1-1.49,1.49A1.48,1.48,0,0,1,84.56,21V10.2a1.47,1.47,0,0,1,1.49-1.52A1.45,1.45,0,0,1,87.54,10.2Z"/><path class="cls-2" d="M89.56,18.51a1.43,1.43,0,0,1,2.07-.22,5.11,5.11,0,0,0,3,1.22A3.7,3.7,0,0,0,96.55,19a1.14,1.14,0,0,0,.49-.83.36.36,0,0,0-.08-.27c0-.09-.14-.2-.36-.34a6.38,6.38,0,0,0-2.21-.77h0a11,11,0,0,1-2.4-.72,4.56,4.56,0,0,1-1.9-1.6,3.31,3.31,0,0,1-.47-1.74,3.86,3.86,0,0,1,1.63-3,5.92,5.92,0,0,1,3.39-1,7.11,7.11,0,0,1,4.15,1.52,1.53,1.53,0,0,1,.44,2,1.46,1.46,0,0,1-2,.39,4.7,4.7,0,0,0-2.54-1,2.81,2.81,0,0,0-1.65.49.86.86,0,0,0-.45.64.28.28,0,0,0,.06.22.73.73,0,0,0,.3.28,5.72,5.72,0,0,0,2,.66l0,0h0a9.51,9.51,0,0,1,2.57.8,4.25,4.25,0,0,1,2,1.63,3.58,3.58,0,0,1,.52,1.82,4,4,0,0,1-1.74,3.21,6.28,6.28,0,0,1-3.59,1.1,8,8,0,0,1-4.92-1.91A1.46,1.46,0,0,1,89.56,18.51Z"/><g class="cls-3"><path class="cls-4" d="M35.86,24.67c-2,1-12.31,5.28-14.5,6.42s-3.42,1.14-5.16.31S3.49,26.13,1.51,25.19C.52,24.71,0,24.32,0,23.94V20.17s14.3-3.12,16.6-3.94,3.11-.86,5.08-.14,13.7,2.84,15.65,3.55c0,0,0,3.37,0,3.72s-.44.78-1.46,1.31Z"/><path class="cls-5" d="M35.86,20.89c-2,1-12.31,5.28-14.5,6.43s-3.42,1.13-5.16.3S3.49,22.36,1.51,21.41s-2-1.59-.08-2.35S14.3,14,16.6,13.18s3.11-.86,5.08-.14,12.22,4.81,14.16,5.52,2,1.29,0,2.33Z"/><path class="cls-4" d="M35.86,18.51c-2,1-12.31,5.29-14.5,6.43s-3.42,1.13-5.16.31S3.49,20,1.51,19C.52,18.56,0,18.16,0,17.79V14s14.3-3.11,16.6-3.94,3.11-.85,5.08-.13,13.7,2.83,15.65,3.54c0,0,0,3.37,0,3.72s-.44.79-1.46,1.31Z"/><path class="cls-5" d="M35.86,14.74c-2,1-12.31,5.28-14.5,6.43s-3.42,1.13-5.16.3S3.49,16.21,1.51,15.26s-2-1.59-.08-2.36S14.3,7.86,16.6,7s3.11-.86,5.08-.14,12.22,4.8,14.16,5.52,2,1.29,0,2.33Z"/><path class="cls-4" d="M35.86,12.13c-2,1-12.31,5.29-14.5,6.43s-3.42,1.14-5.16.31S3.49,13.6,1.51,12.66C.52,12.18,0,11.78,0,11.41V7.63S14.3,4.52,16.6,3.69s3.11-.85,5.08-.13,13.7,2.83,15.65,3.55c0,0,0,3.36,0,3.71s-.44.79-1.46,1.31Z"/><path class="cls-5" d="M35.86,8.36c-2,1-12.31,5.28-14.5,6.43s-3.42,1.13-5.16.3S3.49,9.83,1.51,8.88s-2-1.59-.08-2.36S14.3,1.48,16.6.65s3.11-.86,5.08-.14S33.9,5.31,35.84,6s2,1.29,0,2.33Z"/></g><polygon class="cls-2" points="19.25 3 21.71 2.19 21.04 3.79 23.55 4.73 20.32 5.06 19.59 6.81 18.42 4.86 14.69 4.53 17.48 3.52 16.64 1.98 19.25 3 19.25 3 19.25 3"/><polygon class="cls-2" points="19.4 13.18 13.36 10.68 22.01 9.35 19.4 13.18 19.4 13.18 19.4 13.18"/><path class="cls-2" d="M11,5.7c2.56,0,4.63.8,4.63,1.79S13.59,9.28,11,9.28s-4.62-.8-4.62-1.79S8.48,5.7,11,5.7Z"/><polygon class="cls-6" points="27.38 5.2 32.49 7.23 27.38 9.25 27.38 5.2 27.38 5.2 27.38 5.2"/><polygon class="cls-7" points="27.38 5.2 27.38 9.25 26.82 9.46 21.71 7.44 27.38 5.2 27.38 5.2 27.38 5.2"/></svg>