<svg id="Layer_1" data-name="Layer 1" xmlns="http://www.w3.org/2000/svg" xmlns:xlink="http://www.w3.org/1999/xlink" viewBox="0 0 100 85.7"><defs><style>.cls-1{fill:none;}.cls-2{clip-path:url(#clip-path);}.cls-3{fill:#a32321;}.cls-4{fill:#dc382d;}.cls-5{fill:#fff;}.cls-6{fill:#741012;}.cls-7{fill:#ac2823;}</style><clipPath id="clip-path"><rect class="cls-1" width="100" height="85.7"/></clipPath></defs><title>redis-cube</title><g class="cls-2"><path class="cls-3" d="M96.08,66.09c-5.34,2.78-33,14.14-38.87,17.21s-9.15,3-13.8.82S9.34,70,4,67.48c-2.65-1.27-4-2.34-4-3.34V54s38.3-8.34,44.48-10.56,8.33-2.3,13.59-.37S94.8,50.71,100,52.61v10c0,1-1.2,2.1-3.92,3.52Z"/><path class="cls-4" d="M96.08,56c-5.34,2.78-33,14.14-38.87,17.21s-9.15,3-13.8.82S9.34,59.9,4,57.37s-5.41-4.28-.2-6.32S38.3,37.54,44.48,35.32,52.81,33,58.07,35,90.82,47.81,96,49.72s5.4,3.47.06,6.26Z"/><path class="cls-3" d="M96.08,49.6c-5.34,2.78-33,14.15-38.87,17.22s-9.15,3-13.8.82S9.34,53.53,4,51c-2.65-1.27-4-2.34-4-3.35V37.55S38.3,29.21,44.48,27s8.33-2.3,13.59-.37S94.8,34.22,100,36.13v10c0,1-1.2,2.1-3.92,3.51Z"/><path class="cls-4" d="M96.08,39.49c-5.34,2.78-33,14.15-38.87,17.22s-9.15,3-13.8.82S9.34,43.42,4,40.89s-5.41-4.28-.2-6.32S38.3,21.05,44.48,18.84s8.33-2.3,13.59-.37S90.82,31.33,96,33.24s5.4,3.47.06,6.25Z"/><path class="cls-3" d="M96.08,32.51c-5.34,2.78-33,14.15-38.87,17.22s-9.15,3-13.8.81S9.34,36.44,4,33.9c-2.65-1.26-4-2.33-4-3.34V20.45S38.3,12.12,44.48,9.9s8.33-2.3,13.59-.37S94.8,17.13,100,19V29c0,1-1.2,2.1-3.92,3.51Z"/><path class="cls-4" d="M96.08,22.4c-5.34,2.78-33,14.15-38.87,17.22s-9.15,3-13.8.81S9.34,26.33,4,23.79s-5.41-4.27-.2-6.31S38.3,4,44.48,1.74s8.33-2.29,13.59-.37S90.82,14.24,96,16.14s5.4,3.48.06,6.26Z"/></g><polygon class="cls-5" points="51.57 8.03 58.16 5.88 56.38 10.15 63.1 12.66 54.44 13.56 52.5 18.23 49.36 13.02 39.36 12.13 46.82 9.43 44.58 5.3 51.57 8.03 51.57 8.03 51.57 8.03"/><polygon class="cls-5" points="51.98 35.31 35.8 28.6 58.98 25.05 51.98 35.31 51.98 35.31 51.98 35.31"/><path class="cls-5" d="M29.56,15.26c6.84,0,12.38,2.15,12.38,4.8s-5.54,4.8-12.38,4.8-12.39-2.15-12.39-4.8,5.55-4.8,12.39-4.8Z"/><polygon class="cls-6" points="73.34 13.94 87.06 19.36 73.35 24.77 73.34 13.94 73.34 13.94 73.34 13.94"/><polygon class="cls-7" points="73.34 13.94 73.35 24.77 71.87 25.36 58.17 19.94 73.34 13.94 73.34 13.94 73.34 13.94"/></svg>