<svg id="Layer_1" data-name="Layer 1" xmlns="http://www.w3.org/2000/svg" viewBox="0 0 160 24.19"><defs><style>.cls-1{fill:#494c4d;}</style></defs><title>Artboard 241</title><path class="cls-1" d="M53.28,12.14A6.37,6.37,0,0,1,66,11.65v.11a.61.61,0,0,1-.65.59H54.57a5.18,5.18,0,0,0,5.1,5A4.93,4.93,0,0,0,63.91,15a.63.63,0,0,1,.86-.22.7.7,0,0,1,.22.92,6.27,6.27,0,0,1-5.32,3A6.48,6.48,0,0,1,53.28,12.14Zm1.37-1.05h10a5.08,5.08,0,0,0-4.94-4.27A5.13,5.13,0,0,0,54.65,11.09Z"/><path class="cls-1" d="M76.74,10.9a4,4,0,0,0-4-4.05,4.12,4.12,0,0,0-4.08,4.05v7.25a.66.66,0,0,1-.62.54h-.16a.72.72,0,0,1-.43-.35.09.09,0,0,1,0-.08.13.13,0,0,0,0-.06V6.2a.63.63,0,1,1,1.26,0V7.46A5.34,5.34,0,0,1,78,10.9V18a.63.63,0,0,1-.64.65.64.64,0,0,1-.65-.65Z"/><path class="cls-1" d="M84.64,6.18a.69.69,0,0,1-.65.64H82.3v9.59a1,1,0,0,0,1,1,.75.75,0,0,1,.67.67.72.72,0,0,1-.67.65A2.24,2.24,0,0,1,81,16.41V6.82H79.32c-.64,0-.64-.32-.64-.64s0-.65.64-.65H81V.64A.69.69,0,0,1,81.6,0a.72.72,0,0,1,.7.64V5.53H84A.69.69,0,0,1,84.64,6.18Z"/><path class="cls-1" d="M86.09,12.14a6.36,6.36,0,1,1,12.72-.49v.11a.6.6,0,0,1-.64.59H87.38a5.18,5.18,0,0,0,5.1,5A5,5,0,0,0,96.72,15a.63.63,0,0,1,.86-.22.7.7,0,0,1,.21.92,6.24,6.24,0,0,1-5.31,3A6.48,6.48,0,0,1,86.09,12.14Zm1.37-1.05h10a5,5,0,0,0-10,0Z"/><path class="cls-1" d="M100.13,6.2a.65.65,0,0,1,1.29,0V9.1a2.23,2.23,0,0,1,.19-.32,6.32,6.32,0,0,1,5.26-3.22.63.63,0,0,1,.64.64.65.65,0,0,1-.64.65A4.71,4.71,0,0,0,103.06,9a11.77,11.77,0,0,0-1.59,3.06.41.41,0,0,0,0,.21V18a.65.65,0,1,1-1.29,0Z"/><path class="cls-1" d="M109.23,12.32V6.18a.66.66,0,0,1,.64-.65.67.67,0,0,1,.68.65v1.9a6.21,6.21,0,0,1,5-2.55,6.43,6.43,0,0,1,6.36,6.53,6.47,6.47,0,0,1-6.36,6.55,6.16,6.16,0,0,1-5-2.58v7.52a.66.66,0,0,1-.68.64.65.65,0,0,1-.64-.64Zm1.32-.26a5,5,0,1,0,10,0,5,5,0,1,0-10-.22Z"/><path class="cls-1" d="M123.73,6.2a.65.65,0,0,1,1.29,0V9.1a2.11,2.11,0,0,1,.18-.32,6.35,6.35,0,0,1,5.27-3.22.63.63,0,0,1,.64.64.65.65,0,0,1-.64.65A4.75,4.75,0,0,0,126.65,9a12,12,0,0,0-1.58,3.06.41.41,0,0,0,0,.21V18a.65.65,0,1,1-1.29,0Z"/><path class="cls-1" d="M132.86,1.88a.64.64,0,0,1,.64-.64.65.65,0,0,1,.67.64V2.5a.66.66,0,1,1-1.31,0Zm0,4.3a.63.63,0,0,1,.64-.65.64.64,0,0,1,.67.65V18a.66.66,0,0,1-1.31,0Z"/><path class="cls-1" d="M136.78,16a.64.64,0,0,1,.91-.08,7,7,0,0,0,4,1.53,3.91,3.91,0,0,0,2.49-.81,2,2,0,0,0,1-1.61,2.11,2.11,0,0,0-.94-1.61,6.54,6.54,0,0,0-2.8-1l-.05,0a7.69,7.69,0,0,1-3-1A2.75,2.75,0,0,1,137,9a3.25,3.25,0,0,1,1.42-2.58,5.64,5.64,0,0,1,3.22-.89A7.1,7.1,0,0,1,145.58,7a.69.69,0,0,1,.19.92.66.66,0,0,1-.89.19,5.69,5.69,0,0,0-3.22-1.32,3.91,3.91,0,0,0-2.49.75A2,2,0,0,0,138.33,9a1.59,1.59,0,0,0,.75,1.31,6.61,6.61,0,0,0,2.69.91h0A9.14,9.14,0,0,1,145,12.3,3.27,3.27,0,0,1,146.5,15,3.35,3.35,0,0,1,145,17.64a5.35,5.35,0,0,1-3.27,1.05,8,8,0,0,1-4.86-1.88A.6.6,0,0,1,136.78,16Z"/><path class="cls-1" d="M147.27,12.14A6.37,6.37,0,0,1,160,11.65v.11a.61.61,0,0,1-.64.59h-10.8a5.18,5.18,0,0,0,5.1,5A5,5,0,0,0,157.91,15a.62.62,0,0,1,.85-.22.69.69,0,0,1,.22.92,6.27,6.27,0,0,1-5.32,3A6.48,6.48,0,0,1,147.27,12.14Zm1.37-1.05h10a5.08,5.08,0,0,0-4.94-4.27A5.14,5.14,0,0,0,148.64,11.09Z"/><path class="cls-1" d="M3,7.25A4.56,4.56,0,0,1,4.72,6.07a5.33,5.33,0,0,1,2-.44A1.78,1.78,0,0,1,8,6.07a1.31,1.31,0,0,1,.44,1,1.42,1.42,0,0,1-.44,1,1.32,1.32,0,0,1-1,.45C5.31,8.72,3,10.42,3,12.71V18a1.46,1.46,0,0,1-.44,1,1.45,1.45,0,0,1-1,.44,1.33,1.33,0,0,1-1-.44A1.46,1.46,0,0,1,0,18V7A1.5,1.5,0,0,1,.44,6a2,2,0,0,1,1.11-.36,1.31,1.31,0,0,1,1,.44A1.32,1.32,0,0,1,3,7.1Z"/><path class="cls-1" d="M20.91,12.05a1.4,1.4,0,0,1-.37.95,1.63,1.63,0,0,1-1,.45H10.8a2.81,2.81,0,0,0,1,1.77,3.94,3.94,0,0,0,2.58,1.25,3.84,3.84,0,0,0,2.88-.66,1.46,1.46,0,0,1,1.1-.44,1.26,1.26,0,0,1,1,.36,1.2,1.2,0,0,1,0,1.77,6.66,6.66,0,0,1-4.79,1.78,6.28,6.28,0,0,1-4.8-2.07,7.26,7.26,0,0,1-2-4.87,6.62,6.62,0,0,1,2-4.87,6.13,6.13,0,0,1,4.65-2,6,6,0,0,1,4.57,1.84A6.78,6.78,0,0,1,21,11.9v.15ZM14.34,8.13a3.9,3.9,0,0,0-2.51,1A3.67,3.67,0,0,0,10.65,11H18.4a3.38,3.38,0,0,0-1.33-1.84,4.78,4.78,0,0,0-2.73-1"/><path class="cls-1" d="M34.8,17.8a1.42,1.42,0,0,1-.44,1,1.45,1.45,0,0,1-1,.45,1.41,1.41,0,0,1-1-.37,1.42,1.42,0,0,1-.52-.81,6.57,6.57,0,0,1-8.48-.82,6.54,6.54,0,0,1-1.92-4.87,7,7,0,0,1,1.92-4.87,6.48,6.48,0,0,1,4.72-2.06,6.12,6.12,0,0,1,3.69,1.18V1.49a1.36,1.36,0,0,1,.44-1,1.48,1.48,0,0,1,1-.44,1.37,1.37,0,0,1,1,.44,1.49,1.49,0,0,1,.44,1V17.8Zm-6.64-1.48a3.23,3.23,0,0,0,2.58-1.18,3.91,3.91,0,0,0,0-5.46A3.53,3.53,0,0,0,28.16,8.5a3.18,3.18,0,0,0-2.58,1.18,3.91,3.91,0,0,0,0,5.46,3.4,3.4,0,0,0,2.58,1.18"/><path class="cls-1" d="M39.16,1.49v.59a1.48,1.48,0,0,1-.45,1.11,1.26,1.26,0,0,1-1,.37,1.34,1.34,0,0,1-1-.44A1.51,1.51,0,0,1,36.2,2V1.49a1.46,1.46,0,0,1,.45-1,1.46,1.46,0,0,1,1-.44,1.34,1.34,0,0,1,1,.44,1.33,1.33,0,0,1,.45,1M36.65,6a1.46,1.46,0,0,1,1-.44,1.34,1.34,0,0,1,1,.44,1.51,1.51,0,0,1,.45,1.11V17.87a1.23,1.23,0,0,1-.45,1,1.46,1.46,0,0,1-1,.44,1.34,1.34,0,0,1-1-.44,1.47,1.47,0,0,1-.45-1V7.1A1.51,1.51,0,0,1,36.65,6"/><path class="cls-1" d="M49.63,7a1.41,1.41,0,0,1,.59.88A2,2,0,0,1,50.08,9a1.46,1.46,0,0,1-.89.59,1.55,1.55,0,0,1-1.11-.22,5,5,0,0,0-2.51-1A2.37,2.37,0,0,0,44,8.87c-.29.22-.44.37-.44.52a.59.59,0,0,0,.07.37,1.11,1.11,0,0,0,.3.22,4.38,4.38,0,0,0,2,.66h0a10.71,10.71,0,0,1,2.66.81A3.72,3.72,0,0,1,50.3,13a3.89,3.89,0,0,1,.59,1.92,3.87,3.87,0,0,1-1.7,3.18,6,6,0,0,1-3.54,1.1,7.66,7.66,0,0,1-4.87-1.92,1.55,1.55,0,0,1-.52-1,1.42,1.42,0,0,1,2.29-1.25,4.29,4.29,0,0,0,3,1.18,3.18,3.18,0,0,0,1.85-.52c.29-.29.52-.51.52-.73s0-.3-.08-.37-.15-.22-.37-.3a5.56,5.56,0,0,0-2.21-.74h0a7.56,7.56,0,0,1-2.51-.81A4.44,4.44,0,0,1,41,11.23a3.44,3.44,0,0,1-.44-1.69,3.62,3.62,0,0,1,1.62-3,6,6,0,0,1,3.39-1A8.4,8.4,0,0,1,49.63,7"/></svg>