<?xml version="1.0" encoding="utf-8"?>
<!-- Generator: Adobe Illustrator 22.1.0, SVG Export Plug-In . SVG Version: 6.00 Build 0)  -->
<svg version="1.1" id="Layer_1" xmlns="http://www.w3.org/2000/svg" xmlns:xlink="http://www.w3.org/1999/xlink" x="0px" y="0px"
	 viewBox="0 0 100 32" style="enable-background:new 0 0 100 32;" xml:space="preserve">
<style type="text/css">
	.st0{fill:#484C4D;}
	.st1{clip-path:url(#SVGID_2_);}
	.st2{fill:#A32321;}
	.st3{fill:#DC382D;}
	.st4{fill:#FFFFFF;}
	.st5{fill:#741012;}
	.st6{fill:#AC2823;}
</style>
<g>
	<g>
		<path class="st0" d="M54.6,10.1c0,0.8-0.7,1.5-1.5,1.5c-0.6,0-1.2,0.2-1.7,0.5c-0.5,0.3-1,0.8-1.3,1.3c-0.5,0.7-0.9,1.5-1.2,2.3
			V21c0,0.8-0.7,1.5-1.5,1.5c-0.8,0-1.4-0.7-1.4-1.5V10.1c0-0.8,0.7-1.4,1.5-1.4c0,0,0,0,0,0c0.8,0,1.5,0.6,1.5,1.4v0.2
			c0.2-0.2,0.4-0.4,0.6-0.6c1-0.7,2.3-1.1,3.5-1.1C53.9,8.7,54.5,9.3,54.6,10.1C54.6,10.1,54.6,10.1,54.6,10.1z"/>
		<path class="st0" d="M54.3,15.6c0-3.8,3-6.8,6.7-6.9c3.6,0,6.6,2.8,6.7,6.4v0.1c0,0.1,0,0.2,0,0.2c-0.1,0.7-0.7,1.2-1.4,1.1h-8.8
			c0.1,0.7,0.5,1.3,0.9,1.8c0.7,0.7,1.6,1.2,2.7,1.2c1,0.1,2-0.1,2.9-0.7c0.6-0.5,1.5-0.6,2.1-0.1c0.5,0.5,0.5,1.3,0,1.8
			c-1.4,1.2-3.2,1.9-5,1.8C57.3,22.4,54.3,19.3,54.3,15.6z M57.3,14.2h7.8c-0.7-1.7-2.3-2.9-4.1-2.9C59.3,11.3,57.7,12.5,57.3,14.2
			L57.3,14.2z"/>
		<path class="st0" d="M82.5,21c0,0.8-0.7,1.5-1.5,1.5c-0.7,0-1.3-0.5-1.5-1.2c-1.1,0.8-2.4,1.2-3.8,1.2c-3.8-0.1-6.8-3.4-6.6-7.2
			c0.1-3.6,3-6.5,6.6-6.6c1.3,0,2.6,0.4,3.7,1.2V4.6c0.1-0.8,0.8-1.4,1.7-1.3c0.7,0.1,1.2,0.6,1.3,1.3L82.5,21L82.5,21z M75.8,11.7
			c-1,0-1.9,0.4-2.6,1.1c-1.5,1.5-1.5,4,0,5.5c1.3,1.4,3.6,1.5,5,0.2c0.1-0.1,0.1-0.1,0.2-0.2c1.5-1.5,1.5-4,0-5.5
			C77.8,12.1,76.8,11.7,75.8,11.7L75.8,11.7z"/>
		<path class="st0" d="M87.5,5.2c0,0.8-0.6,1.5-1.5,1.5c0,0,0,0,0,0c-0.8,0-1.5-0.7-1.5-1.5c0,0,0,0,0,0V4.6c0-0.8,0.7-1.5,1.5-1.5
			c0,0,0,0,0,0c0.8,0,1.5,0.6,1.5,1.4c0,0,0,0,0,0.1V5.2z M87.5,10.2V21c0,0.8-0.6,1.5-1.4,1.5c0,0,0,0-0.1,0
			c-0.8,0-1.5-0.7-1.5-1.5c0,0,0,0,0,0V10.2c0-0.8,0.6-1.5,1.4-1.5c0,0,0,0,0.1,0c0.8,0,1.5,0.6,1.5,1.4
			C87.5,10.1,87.5,10.2,87.5,10.2z"/>
		<path class="st0" d="M89.6,18.5c0.5-0.6,1.4-0.8,2-0.3c0,0,0,0,0.1,0.1c0.8,0.7,1.9,1.1,3,1.2c0.7,0,1.3-0.2,1.9-0.5
			c0.3-0.2,0.5-0.5,0.5-0.8c0-0.1,0-0.2-0.1-0.3c0-0.1-0.1-0.2-0.4-0.3c-0.7-0.4-1.4-0.7-2.2-0.8c-0.8-0.1-1.6-0.4-2.4-0.7
			c-0.8-0.3-1.4-0.9-1.9-1.6c-0.3-0.5-0.5-1.1-0.5-1.7c0-1.2,0.6-2.3,1.6-3c1-0.7,2.2-1,3.4-1c1.5,0.1,3,0.6,4.2,1.5
			c0.6,0.5,0.8,1.3,0.4,2c-0.5,0.7-1.3,0.8-2,0.4c-0.7-0.6-1.6-0.9-2.5-1c-0.6,0-1.2,0.2-1.7,0.5c-0.2,0.1-0.4,0.4-0.4,0.6
			c0,0.1,0,0.2,0.1,0.2c0.1,0.1,0.2,0.2,0.3,0.3c0.6,0.3,1.3,0.6,2,0.7c0.9,0.1,1.8,0.4,2.6,0.8c0.8,0.3,1.5,0.9,2,1.6
			c0.3,0.5,0.5,1.2,0.5,1.8c0,1.3-0.7,2.5-1.7,3.2c-1.1,0.7-2.3,1.1-3.6,1.1c-1.8-0.1-3.5-0.7-4.9-1.9C89.2,20.1,89,19.2,89.6,18.5
			C89.5,18.5,89.6,18.5,89.6,18.5z"/>
	</g>
	<g>
		<defs>
			<rect id="SVGID_1_" width="37.3" height="32"/>
		</defs>
		<clipPath id="SVGID_2_">
			<use xlink:href="#SVGID_1_"  style="overflow:visible;"/>
		</clipPath>
		<g class="st1">
			<path class="st2" d="M35.9,24.7c-2,1-12.3,5.3-14.5,6.4s-3.4,1.1-5.2,0.3S3.5,26.1,1.5,25.2c-1-0.5-1.5-0.9-1.5-1.2v-3.8
				c0,0,14.3-3.1,16.6-3.9s3.1-0.9,5.1-0.1c2,0.7,13.7,2.8,15.6,3.5v3.7C37.3,23.4,36.9,24.1,35.9,24.7L35.9,24.7z"/>
			<path class="st3" d="M35.9,20.9c-2,1-12.3,5.3-14.5,6.4s-3.4,1.1-5.2,0.3S3.5,22.4,1.5,21.4s-2-1.6-0.1-2.4s12.9-5.1,15.2-5.9
				s3.1-0.9,5.1-0.1s12.2,4.8,14.2,5.5S37.8,19.8,35.9,20.9L35.9,20.9z"/>
			<path class="st2" d="M35.9,18.5c-2,1-12.3,5.3-14.5,6.4s-3.4,1.1-5.2,0.3S3.5,20,1.5,19c-1-0.4-1.5-0.8-1.5-1.2V14
				c0,0,14.3-3.1,16.6-3.9s3.1-0.9,5.1-0.1s13.7,2.8,15.6,3.5v3.7C37.3,17.2,36.9,18,35.9,18.5L35.9,18.5z"/>
			<path class="st3" d="M35.9,14.7c-2,1-12.3,5.3-14.5,6.4s-3.4,1.1-5.2,0.3S3.5,16.2,1.5,15.3s-2-1.6-0.1-2.4s12.9-5,15.2-5.9
				s3.1-0.9,5.1-0.1s12.2,4.8,14.2,5.5S37.8,13.7,35.9,14.7L35.9,14.7z"/>
			<path class="st2" d="M35.9,12.1c-2,1-12.3,5.3-14.5,6.4s-3.4,1.1-5.2,0.3S3.5,13.6,1.5,12.7c-1-0.5-1.5-0.9-1.5-1.2V7.6
				c0,0,14.3-3.1,16.6-3.9s3.1-0.8,5.1-0.1s13.7,2.8,15.6,3.5v3.7C37.3,10.8,36.9,11.6,35.9,12.1L35.9,12.1z"/>
			<path class="st3" d="M35.9,8.4c-2,1-12.3,5.3-14.5,6.4s-3.4,1.1-5.2,0.3S3.5,9.8,1.5,8.9s-2-1.6-0.1-2.4s12.9-5,15.2-5.9
				s3.1-0.9,5.1-0.1S33.9,5.3,35.8,6S37.8,7.3,35.9,8.4L35.9,8.4z"/>
		</g>
	</g>
	<path class="st4" d="M19.2,3l2.5-0.8L21,3.8l2.5,0.9l-3.2,0.3l-0.7,1.8l-1.2-2l-3.7-0.3l2.8-1L16.6,2L19.2,3z"/>
	<path class="st4" d="M19.4,13.2l-6-2.5L22,9.4L19.4,13.2z"/>
	<path class="st4" d="M11,5.7c2.6,0,4.6,0.8,4.6,1.8s-2,1.8-4.6,1.8S6.4,8.5,6.4,7.5S8.5,5.7,11,5.7z"/>
	<path class="st5" d="M27.4,5.2l5.1,2l-5.1,2L27.4,5.2z"/>
	<path class="st6" d="M27.4,5.2v4.1l-0.6,0.2l-5.1-2L27.4,5.2z"/>
</g>
</svg>
