<svg id="Layer_1" data-name="Layer 1" xmlns="http://www.w3.org/2000/svg" viewBox="0 0 101.52 103"><defs><style>.cls-1{fill:#a22322;}.cls-2{fill:#db382c;}.cls-3{fill:#fff;}.cls-4{fill:#741113;}.cls-5{fill:#ab2724;}.cls-6{fill:#364253;stroke:#fff;stroke-miterlimit:10;stroke-width:1.52px;}</style></defs><title>redis-enterprise-cube</title><path class="cls-1" d="M96.84,66.09C91.5,68.87,63.86,80.23,58,83.3s-9.15,3-13.8.82S10.1,70,4.8,67.48c-2.65-1.27-4-2.34-4-3.34V54s38.3-8.34,44.48-10.56,8.33-2.3,13.59-.37,36.73,7.61,41.93,9.51c0,0,0,9,0,10S99.55,64.67,96.84,66.09Z"/><path class="cls-2" d="M96.84,56C91.5,58.76,63.86,70.12,58,73.19s-9.15,3-13.8.82S10.1,59.9,4.8,57.37s-5.41-4.28-.2-6.32S39.06,37.54,45.24,35.32,53.57,33,58.83,35,91.57,47.81,96.77,49.72,102.17,53.19,96.84,56Z"/><path class="cls-1" d="M96.84,49.6C91.5,52.38,63.86,63.75,58,66.82s-9.15,3-13.8.82S10.1,53.53,4.8,51c-2.65-1.27-4-2.34-4-3.35V37.55S39.06,29.21,45.24,27s8.33-2.3,13.59-.37,36.73,7.6,41.93,9.51c0,0,0,9,0,10S99.55,48.19,96.84,49.6Z"/><path class="cls-2" d="M96.84,39.49C91.5,42.27,63.86,53.64,58,56.71s-9.15,3-13.8.82S10.1,43.42,4.8,40.89s-5.41-4.28-.2-6.32S39.06,21.05,45.24,18.84s8.33-2.3,13.59-.37S91.57,31.33,96.77,33.24,102.17,36.71,96.84,39.49Z"/><path class="cls-1" d="M96.84,32.51C91.5,35.29,63.86,46.66,58,49.73s-9.15,3-13.8.81S10.1,36.44,4.8,33.91c-2.65-1.27-4-2.34-4-3.35V20.45S39.06,12.12,45.24,9.9s8.33-2.3,13.59-.37,36.73,7.6,41.93,9.51c0,0,0,9,0,10S99.55,31.1,96.84,32.51Z"/><path class="cls-2" d="M96.84,22.4C91.5,25.18,63.86,36.55,58,39.62s-9.15,3-13.8.81S10.1,26.33,4.8,23.79s-5.41-4.27-.2-6.31S39.06,4,45.24,1.74s8.33-2.29,13.59-.37S91.57,14.24,96.77,16.14,102.17,19.62,96.84,22.4Z"/><polygon class="cls-3" points="52.33 8.03 58.92 5.88 57.14 10.15 63.86 12.66 55.2 13.56 53.25 18.23 50.12 13.02 40.11 12.13 47.58 9.43 45.34 5.3 52.33 8.03"/><polygon class="cls-3" points="52.74 35.31 36.56 28.6 59.73 25.05 52.74 35.31"/><ellipse class="cls-3" cx="30.32" cy="20.06" rx="12.39" ry="4.8"/><polygon class="cls-4" points="74.1 13.94 87.81 19.36 74.11 24.77 74.1 13.94"/><polygon class="cls-5" points="74.1 13.94 74.11 24.77 72.62 25.36 58.93 19.94 74.1 13.94"/><rect class="cls-6" x="0.76" y="74.97" width="100" height="27.27"/><path class="cls-3" d="M17.86,83.68v1.46H13.49v2.73h3.44v1.41H13.49v2.79h4.37v1.47H11.64V83.68Z"/><path class="cls-3" d="M20.61,83.69a.37.37,0,0,1,.15,0,.47.47,0,0,1,.12.09A1,1,0,0,1,21,84l5.18,6.59a3.73,3.73,0,0,1,0-.46c0-.16,0-.3,0-.43v-6h1.61v9.86h-.94a1,1,0,0,1-.37-.07,1,1,0,0,1-.28-.25L21,86.66l0,.43c0,.14,0,.27,0,.39v6.06H19.45V83.68h1.16Z"/><path class="cls-3" d="M36.7,83.68v1.5h-3v8.36H31.9V85.18h-3v-1.5Z"/><path class="cls-3" d="M44.09,83.68v1.46H39.72v2.73h3.44v1.41H39.72v2.79h4.37v1.47H37.87V83.68Z"/><path class="cls-3" d="M47.57,89.68v3.86H45.74V83.68h3a6.63,6.63,0,0,1,1.73.2,3.35,3.35,0,0,1,1.18.59,2.33,2.33,0,0,1,.68.89,3.06,3.06,0,0,1,.21,1.15,2.89,2.89,0,0,1-.15.94,2.41,2.41,0,0,1-.42.81,2.74,2.74,0,0,1-.68.63,3.73,3.73,0,0,1-.92.44,1.8,1.8,0,0,1,.6.57l2.46,3.64H51.78a.82.82,0,0,1-.4-.1.82.82,0,0,1-.29-.27L49,90a.66.66,0,0,0-.25-.25.92.92,0,0,0-.42-.08Zm0-1.31h1.15a3,3,0,0,0,.9-.13,1.74,1.74,0,0,0,.63-.36,1.34,1.34,0,0,0,.37-.54,1.73,1.73,0,0,0,.13-.69,1.4,1.4,0,0,0-.5-1.15,2.35,2.35,0,0,0-1.51-.4H47.57Z"/><path class="cls-3" d="M56.5,90.07v3.47H54.67V83.68h3.21a5.44,5.44,0,0,1,1.71.23,3.16,3.16,0,0,1,1.19.65,2.46,2.46,0,0,1,.7,1,3.73,3.73,0,0,1,0,2.58,2.62,2.62,0,0,1-.71,1,3.52,3.52,0,0,1-1.19.67,5.32,5.32,0,0,1-1.68.24Zm0-1.44h1.38a2.93,2.93,0,0,0,.88-.12,1.78,1.78,0,0,0,.62-.36,1.52,1.52,0,0,0,.37-.58,2.19,2.19,0,0,0,.12-.75,2.09,2.09,0,0,0-.12-.72,1.45,1.45,0,0,0-.37-.54,1.62,1.62,0,0,0-.62-.35,2.94,2.94,0,0,0-.88-.11H56.5Z"/><path class="cls-3" d="M65,89.68v3.86H63.19V83.68h3a6.61,6.61,0,0,1,1.72.2,3.31,3.31,0,0,1,1.19.59,2.31,2.31,0,0,1,.67.89A3.06,3.06,0,0,1,70,86.51a2.89,2.89,0,0,1-.14.94,2.62,2.62,0,0,1-.43.81,2.74,2.74,0,0,1-.68.63,3.73,3.73,0,0,1-.92.44,1.8,1.8,0,0,1,.6.57l2.47,3.64H69.24a.86.86,0,0,1-.41-.1.8.8,0,0,1-.28-.27L66.48,90a.76.76,0,0,0-.26-.25.87.87,0,0,0-.41-.08Zm0-1.31h1.15a3,3,0,0,0,.9-.13,1.88,1.88,0,0,0,.64-.36,1.45,1.45,0,0,0,.37-.54,1.92,1.92,0,0,0,.12-.69,1.39,1.39,0,0,0-.49-1.15,2.37,2.37,0,0,0-1.51-.4H65Z"/><path class="cls-3" d="M74.13,93.54H72.29V83.68h1.84Z"/><path class="cls-3" d="M81.63,85.47a.48.48,0,0,1-.18.21.41.41,0,0,1-.23.06.62.62,0,0,1-.31-.1l-.4-.24a4.61,4.61,0,0,0-.54-.23,2.31,2.31,0,0,0-.74-.11,2.19,2.19,0,0,0-.66.09,1.38,1.38,0,0,0-.48.26,1.11,1.11,0,0,0-.29.39,1.35,1.35,0,0,0-.09.5.86.86,0,0,0,.19.58,1.53,1.53,0,0,0,.52.4,4.62,4.62,0,0,0,.73.29l.83.28a7.39,7.39,0,0,1,.84.34,3,3,0,0,1,.73.49,2.35,2.35,0,0,1,.51.72,2.56,2.56,0,0,1,.19,1A3.46,3.46,0,0,1,82,91.7a2.93,2.93,0,0,1-.67,1,3.13,3.13,0,0,1-1.08.69,4,4,0,0,1-1.45.24,4.88,4.88,0,0,1-.93-.09,5.13,5.13,0,0,1-.87-.26,4.55,4.55,0,0,1-.79-.41,3.76,3.76,0,0,1-.65-.53l.53-.88a.74.74,0,0,1,.19-.16.45.45,0,0,1,.23-.07.69.69,0,0,1,.37.14c.13.1.29.2.47.32A4.63,4.63,0,0,0,78,92a2.55,2.55,0,0,0,.88.13,1.79,1.79,0,0,0,1.21-.37,1.3,1.3,0,0,0,.43-1.06,1.08,1.08,0,0,0-.19-.64,1.66,1.66,0,0,0-.52-.41,3.47,3.47,0,0,0-.73-.28c-.27-.08-.55-.16-.83-.26a8.36,8.36,0,0,1-.83-.32,2.7,2.7,0,0,1-.73-.5,2.14,2.14,0,0,1-.52-.77A2.87,2.87,0,0,1,76,86.4a2.73,2.73,0,0,1,.21-1.05,2.86,2.86,0,0,1,.63-.91,3.21,3.21,0,0,1,1-.63,3.68,3.68,0,0,1,1.37-.24,4.61,4.61,0,0,1,1.61.27,3.79,3.79,0,0,1,1.26.76Z"/><path class="cls-3" d="M89.88,83.68v1.46H85.51v2.73H89v1.41H85.51v2.79h4.37v1.47H83.66V83.68Z"/></svg>