<svg id="Layer_1" data-name="Layer 1" xmlns="http://www.w3.org/2000/svg" viewBox="0 0 160 36.14"><defs><style>.cls-1{fill:#fff;}</style></defs><title>redis-enterprise-cloud-reversed-RGB1</title><path class="cls-1" d="M53.28,12.14A6.37,6.37,0,0,1,66,11.65v.11a.61.61,0,0,1-.65.59H54.57a5.18,5.18,0,0,0,5.1,5A4.93,4.93,0,0,0,63.91,15a.63.63,0,0,1,.86-.22.7.7,0,0,1,.22.92,6.27,6.27,0,0,1-5.32,3A6.48,6.48,0,0,1,53.28,12.14Zm1.37-1.05h10a5.08,5.08,0,0,0-4.94-4.27A5.13,5.13,0,0,0,54.65,11.09Z"/><path class="cls-1" d="M76.74,10.9a4,4,0,0,0-4-4.05,4.12,4.12,0,0,0-4.08,4.05v7.25a.66.66,0,0,1-.62.54h-.16a.72.72,0,0,1-.43-.35.09.09,0,0,1,0-.08.13.13,0,0,0,0-.06V6.2a.63.63,0,1,1,1.26,0V7.46A5.34,5.34,0,0,1,78,10.9V18a.63.63,0,0,1-.64.65.64.64,0,0,1-.65-.65Z"/><path class="cls-1" d="M84.64,6.18a.69.69,0,0,1-.65.64H82.3v9.59a1,1,0,0,0,1,1,.75.75,0,0,1,.67.67.72.72,0,0,1-.67.65A2.24,2.24,0,0,1,81,16.41V6.82H79.32c-.64,0-.64-.32-.64-.64s0-.65.64-.65H81V.64A.69.69,0,0,1,81.6,0a.72.72,0,0,1,.7.64V5.53H84A.69.69,0,0,1,84.64,6.18Z"/><path class="cls-1" d="M86.09,12.14a6.36,6.36,0,1,1,12.72-.49v.11a.6.6,0,0,1-.64.59H87.38a5.18,5.18,0,0,0,5.1,5A5,5,0,0,0,96.72,15a.63.63,0,0,1,.86-.22.7.7,0,0,1,.21.92,6.24,6.24,0,0,1-5.31,3A6.48,6.48,0,0,1,86.09,12.14Zm1.37-1.05h10a5,5,0,0,0-10,0Z"/><path class="cls-1" d="M100.13,6.2a.65.65,0,0,1,1.29,0V9.1a2.23,2.23,0,0,1,.19-.32,6.32,6.32,0,0,1,5.26-3.22.63.63,0,0,1,.64.64.65.65,0,0,1-.64.65A4.71,4.71,0,0,0,103.06,9a11.77,11.77,0,0,0-1.59,3.06.41.41,0,0,0,0,.21V18a.65.65,0,1,1-1.29,0Z"/><path class="cls-1" d="M109.23,12.32V6.18a.66.66,0,0,1,.64-.65.67.67,0,0,1,.68.65v1.9a6.21,6.21,0,0,1,5-2.55,6.43,6.43,0,0,1,6.36,6.53,6.47,6.47,0,0,1-6.36,6.55,6.16,6.16,0,0,1-5-2.58v7.52a.66.66,0,0,1-.68.64.65.65,0,0,1-.64-.64Zm1.32-.26a5,5,0,1,0,10,0,5,5,0,1,0-10-.22Z"/><path class="cls-1" d="M123.73,6.2a.65.65,0,0,1,1.29,0V9.1a2.11,2.11,0,0,1,.18-.32,6.35,6.35,0,0,1,5.27-3.22.63.63,0,0,1,.64.64.65.65,0,0,1-.64.65A4.75,4.75,0,0,0,126.65,9a12,12,0,0,0-1.58,3.06.41.41,0,0,0,0,.21V18a.65.65,0,1,1-1.29,0Z"/><path class="cls-1" d="M132.86,1.88a.64.64,0,0,1,.64-.64.65.65,0,0,1,.67.64V2.5a.66.66,0,1,1-1.31,0Zm0,4.3a.63.63,0,0,1,.64-.65.64.64,0,0,1,.67.65V18a.66.66,0,0,1-1.31,0Z"/><path class="cls-1" d="M136.78,16a.64.64,0,0,1,.91-.08,7,7,0,0,0,4,1.53,3.91,3.91,0,0,0,2.49-.81,2,2,0,0,0,1-1.61,2.11,2.11,0,0,0-.94-1.61,6.54,6.54,0,0,0-2.8-1l-.05,0a7.69,7.69,0,0,1-3-1A2.75,2.75,0,0,1,137,9a3.25,3.25,0,0,1,1.42-2.58,5.64,5.64,0,0,1,3.22-.89A7.1,7.1,0,0,1,145.58,7a.69.69,0,0,1,.19.92.66.66,0,0,1-.89.19,5.69,5.69,0,0,0-3.22-1.32,3.91,3.91,0,0,0-2.49.75A2,2,0,0,0,138.33,9a1.59,1.59,0,0,0,.75,1.31,6.61,6.61,0,0,0,2.69.91h0A9.14,9.14,0,0,1,145,12.3,3.27,3.27,0,0,1,146.5,15,3.35,3.35,0,0,1,145,17.64a5.35,5.35,0,0,1-3.27,1.05,8,8,0,0,1-4.86-1.88A.6.6,0,0,1,136.78,16Z"/><path class="cls-1" d="M147.27,12.14A6.37,6.37,0,0,1,160,11.65v.11a.61.61,0,0,1-.65.59H148.56a5.18,5.18,0,0,0,5.1,5A5,5,0,0,0,157.91,15a.62.62,0,0,1,.85-.22.69.69,0,0,1,.22.92,6.27,6.27,0,0,1-5.32,3A6.48,6.48,0,0,1,147.27,12.14Zm1.37-1.05h10a5.08,5.08,0,0,0-4.94-4.27A5.13,5.13,0,0,0,148.64,11.09Z"/><path class="cls-1" d="M3,7.25A4.56,4.56,0,0,1,4.72,6.07a5.33,5.33,0,0,1,2-.44A1.78,1.78,0,0,1,8,6.07a1.31,1.31,0,0,1,.44,1,1.42,1.42,0,0,1-.44,1,1.32,1.32,0,0,1-1,.45C5.31,8.72,3,10.42,3,12.71V18a1.46,1.46,0,0,1-.44,1,1.45,1.45,0,0,1-1,.44,1.33,1.33,0,0,1-1-.44A1.46,1.46,0,0,1,0,18V7A1.5,1.5,0,0,1,.44,6a2,2,0,0,1,1.11-.36,1.31,1.31,0,0,1,1,.44A1.32,1.32,0,0,1,3,7.1Z"/><path class="cls-1" d="M20.91,12a1.41,1.41,0,0,1-.37,1,1.63,1.63,0,0,1-1,.45H10.8a2.81,2.81,0,0,0,1,1.77,3.94,3.94,0,0,0,2.58,1.25,3.84,3.84,0,0,0,2.88-.66,1.47,1.47,0,0,1,1.1-.45,1.27,1.27,0,0,1,1,.37,1.2,1.2,0,0,1,0,1.77,6.66,6.66,0,0,1-4.79,1.78,6.28,6.28,0,0,1-4.8-2.07,7.26,7.26,0,0,1-2-4.87,6.62,6.62,0,0,1,2-4.87,6.13,6.13,0,0,1,4.65-2,6,6,0,0,1,4.57,1.84A6.78,6.78,0,0,1,21,11.9V12ZM14.34,8.13a3.9,3.9,0,0,0-2.51,1A3.67,3.67,0,0,0,10.65,11H18.4a3.38,3.38,0,0,0-1.33-1.84,4.78,4.78,0,0,0-2.73-1"/><path class="cls-1" d="M34.8,17.8a1.42,1.42,0,0,1-.44,1,1.45,1.45,0,0,1-1,.45,1.59,1.59,0,0,1-1.48-1.19,6.27,6.27,0,0,1-3.76,1.19,6.39,6.39,0,0,1-4.72-2,6.54,6.54,0,0,1-1.92-4.87,7,7,0,0,1,1.92-4.87,6.48,6.48,0,0,1,4.72-2.06,6.12,6.12,0,0,1,3.69,1.18V1.49a1.36,1.36,0,0,1,.44-1,1.48,1.48,0,0,1,1-.44,1.37,1.37,0,0,1,1,.44,1.49,1.49,0,0,1,.44,1V17.8Zm-6.64-1.48a3.23,3.23,0,0,0,2.58-1.18,3.91,3.91,0,0,0,0-5.46A3.53,3.53,0,0,0,28.16,8.5a3.18,3.18,0,0,0-2.58,1.18,3.91,3.91,0,0,0,0,5.46,3.4,3.4,0,0,0,2.58,1.18"/><path class="cls-1" d="M39.16,1.49v.59a1.48,1.48,0,0,1-.45,1.11,1.26,1.26,0,0,1-1,.37,1.34,1.34,0,0,1-1-.44A1.51,1.51,0,0,1,36.2,2V1.49a1.46,1.46,0,0,1,.45-1,1.46,1.46,0,0,1,1-.44,1.34,1.34,0,0,1,1,.44,1.33,1.33,0,0,1,.45,1M36.65,6a1.46,1.46,0,0,1,1-.44,1.34,1.34,0,0,1,1,.44,1.51,1.51,0,0,1,.45,1.11V17.87a1.23,1.23,0,0,1-.45,1,1.46,1.46,0,0,1-1,.44,1.34,1.34,0,0,1-1-.44,1.47,1.47,0,0,1-.45-1V7.1A1.51,1.51,0,0,1,36.65,6"/><path class="cls-1" d="M49.63,7a1.41,1.41,0,0,1,.59.88A2,2,0,0,1,50.08,9a1.51,1.51,0,0,1-.89.59,1.55,1.55,0,0,1-1.11-.22,5,5,0,0,0-2.51-1A2.37,2.37,0,0,0,44,8.87c-.29.22-.44.37-.44.52a.59.59,0,0,0,.07.37,1.11,1.11,0,0,0,.3.22,4.38,4.38,0,0,0,2,.66h0a10.71,10.71,0,0,1,2.66.81A3.72,3.72,0,0,1,50.3,13a3.89,3.89,0,0,1,.59,1.92,3.84,3.84,0,0,1-1.7,3.17,5.91,5.91,0,0,1-3.54,1.11,7.66,7.66,0,0,1-4.87-1.92,1.55,1.55,0,0,1-.52-1,1.42,1.42,0,0,1,2.29-1.25,4.29,4.29,0,0,0,3,1.18,3.18,3.18,0,0,0,1.85-.52c.29-.29.52-.51.52-.73s0-.3-.08-.37-.15-.22-.37-.3a5.56,5.56,0,0,0-2.21-.74h0a7.56,7.56,0,0,1-2.51-.81A4.44,4.44,0,0,1,41,11.23a3.44,3.44,0,0,1-.44-1.69,3.62,3.62,0,0,1,1.62-3,6,6,0,0,1,3.39-1A8.4,8.4,0,0,1,49.63,7"/><path class="cls-1" d="M112.56,34.36a.23.23,0,0,1,.17.07l.43.47a3.46,3.46,0,0,1-1.22.91,4.06,4.06,0,0,1-1.72.32,4.16,4.16,0,0,1-1.61-.3,3.51,3.51,0,0,1-1.22-.86,3.78,3.78,0,0,1-.79-1.32,5,5,0,0,1-.28-1.69,4.58,4.58,0,0,1,.3-1.69,3.73,3.73,0,0,1,2.14-2.19,4.47,4.47,0,0,1,1.67-.3,3.83,3.83,0,0,1,1.55.28,3.65,3.65,0,0,1,1.16.76l-.36.5a.28.28,0,0,1-.09.1.27.27,0,0,1-.15,0,.26.26,0,0,1-.15-.06l-.2-.13-.27-.17a2,2,0,0,0-.36-.17,2.86,2.86,0,0,0-.49-.14,4.09,4.09,0,0,0-.65-.05,3.16,3.16,0,0,0-1.2.22,2.9,2.9,0,0,0-.94.64,3,3,0,0,0-.61,1,4.25,4.25,0,0,0,0,2.7,3.2,3.2,0,0,0,.6,1,2.61,2.61,0,0,0,.9.63,2.94,2.94,0,0,0,1.12.21,4.28,4.28,0,0,0,.65,0,2.67,2.67,0,0,0,.54-.13,2.22,2.22,0,0,0,.46-.24,2.6,2.6,0,0,0,.43-.33A.28.28,0,0,1,112.56,34.36Z"/><path class="cls-1" d="M119.37,35.11h3.54V36h-4.64V27.87h1.1Z"/><path class="cls-1" d="M134.91,32a4.56,4.56,0,0,1-.29,1.68A3.68,3.68,0,0,1,133.8,35a3.73,3.73,0,0,1-1.27.85,4.22,4.22,0,0,1-1.65.31,4.13,4.13,0,0,1-1.64-.31A3.64,3.64,0,0,1,128,35a3.68,3.68,0,0,1-.82-1.33,4.56,4.56,0,0,1-.3-1.68,4.66,4.66,0,0,1,.3-1.69A3.73,3.73,0,0,1,128,29a3.53,3.53,0,0,1,1.27-.86,4.13,4.13,0,0,1,1.64-.31,4.22,4.22,0,0,1,1.65.31,3.62,3.62,0,0,1,1.27.86,3.73,3.73,0,0,1,.82,1.32A4.65,4.65,0,0,1,134.91,32Zm-1.13,0a4.07,4.07,0,0,0-.21-1.35,2.71,2.71,0,0,0-.58-1,2.46,2.46,0,0,0-.91-.64,3.09,3.09,0,0,0-1.2-.22,3,3,0,0,0-1.19.22,2.59,2.59,0,0,0-.92.64,2.85,2.85,0,0,0-.58,1,4.44,4.44,0,0,0,0,2.7,2.94,2.94,0,0,0,.58,1,2.69,2.69,0,0,0,.92.63,3,3,0,0,0,1.19.22,3.09,3.09,0,0,0,1.2-.22,2.56,2.56,0,0,0,.91-.63,2.79,2.79,0,0,0,.58-1A4.07,4.07,0,0,0,133.78,32Z"/><path class="cls-1" d="M143.25,35.17a2.21,2.21,0,0,0,.91-.18,1.72,1.72,0,0,0,.67-.48,2,2,0,0,0,.43-.73,3.14,3.14,0,0,0,.14-.94v-5h1.1v5a3.71,3.71,0,0,1-.22,1.31,3.15,3.15,0,0,1-.65,1.05,3.06,3.06,0,0,1-1,.69,3.82,3.82,0,0,1-2.72,0,3.06,3.06,0,0,1-1-.69,3.15,3.15,0,0,1-.65-1.05,3.71,3.71,0,0,1-.22-1.31v-5h1.1v5a2.81,2.81,0,0,0,.14.94,2.23,2.23,0,0,0,.42.74,2,2,0,0,0,.68.48A2.21,2.21,0,0,0,143.25,35.17Z"/><path class="cls-1" d="M159.14,32a4.68,4.68,0,0,1-.29,1.67,3.77,3.77,0,0,1-.83,1.29,3.59,3.59,0,0,1-1.27.83,4.31,4.31,0,0,1-1.64.29h-3.06V27.87h3.06a4.52,4.52,0,0,1,1.64.29A3.61,3.61,0,0,1,158,29a3.77,3.77,0,0,1,.83,1.29A4.68,4.68,0,0,1,159.14,32ZM158,32a4.35,4.35,0,0,0-.2-1.35,2.76,2.76,0,0,0-.59-1,2.56,2.56,0,0,0-.91-.63,3.23,3.23,0,0,0-1.19-.21h-2v6.38h2a3,3,0,0,0,1.19-.22,2.42,2.42,0,0,0,.91-.62,2.76,2.76,0,0,0,.59-1A4.35,4.35,0,0,0,158,32Z"/></svg>