<?xml version="1.0" encoding="UTF-8" standalone="no"?>
<svg
   xmlns:dc="http://purl.org/dc/elements/1.1/"
   xmlns:cc="http://creativecommons.org/ns#"
   xmlns:rdf="http://www.w3.org/1999/02/22-rdf-syntax-ns#"
   xmlns:svg="http://www.w3.org/2000/svg"
   xmlns="http://www.w3.org/2000/svg"
   xmlns:sodipodi="http://sodipodi.sourceforge.net/DTD/sodipodi-0.dtd"
   xmlns:inkscape="http://www.inkscape.org/namespaces/inkscape"
   version="1.1"
   id="svg2"
   xml:space="preserve"
   width="1279.6801"
   height="720"
   viewBox="0 0 1279.6801 720"
   sodipodi:docname="Architecture_diagrams_1.ai.svg"
   inkscape:version="1.0.2-2 (e86c870879, 2021-01-15)"><metadata
     id="metadata8"><rdf:RDF><cc:Work
         rdf:about=""><dc:format>image/svg+xml</dc:format><dc:type
           rdf:resource="http://purl.org/dc/dcmitype/StillImage" /><dc:title /></cc:Work></rdf:RDF></metadata><defs
     id="defs6"><clipPath
       clipPathUnits="userSpaceOnUse"
       id="clipPath18"><path
         d="M 0,540 H 959.76 V 0 H 0 Z"
         id="path16"
         inkscape:connector-curvature="0" /></clipPath></defs><sodipodi:namedview
     pagecolor="#ffffff"
     bordercolor="#666666"
     borderopacity="1"
     objecttolerance="10"
     gridtolerance="10"
     guidetolerance="10"
     inkscape:pageopacity="0"
     inkscape:pageshadow="2"
     inkscape:window-width="1920"
     inkscape:window-height="1017"
     id="namedview4"
     showgrid="false"
     inkscape:zoom="0.5"
     inkscape:cx="647.11094"
     inkscape:cy="381.67275"
     inkscape:window-x="-8"
     inkscape:window-y="-2"
     inkscape:window-maximized="1"
     inkscape:current-layer="g10"
     inkscape:document-rotation="0" /><g
     id="g10"
     inkscape:groupmode="layer"
     inkscape:label="Architecture_diagrams"
     transform="matrix(1.3333333,0,0,-1.3333333,0,720)"><g
       id="g489"
       transform="translate(393.00001,-43.500001)"><g
         id="g860"
         transform="translate(804.0859,193.2148)"><path
           d="m 0,0 c 6.089,5.749 6.32,3.762 -0.071,9.574 0.009,-2.506 -1.52,-2.821 -3.42,-2.731 -1.729,0.082 -3.478,0.151 -5.195,-0.012 -2.901,-0.275 -3.774,1.028 -3.75,3.784 0.096,10.827 0.047,21.656 0.037,32.485 -0.008,6.806 0.732,6.411 -6.557,6.392 -1.083,-0.003 -2.171,0.068 -3.247,-0.016 -1.559,-0.122 -2.353,0.234 -2.349,2.086 0.004,1.832 0.759,2.157 2.334,2.085 2.27,-0.103 4.548,0.002 6.822,-0.034 4.814,-0.075 7.13,-2.354 7.153,-7.248 0.051,-10.936 -10e-4,-21.873 0.047,-32.809 0.005,-1.083 -0.77,-2.736 1.564,-2.74 1.651,-0.002 2.675,0.141 2.498,2.208 -0.111,1.3 -0.602,2.986 1.156,3.697 1.859,0.752 2.708,-0.873 3.745,-1.884 C 3.4,12.265 5.947,9.603 8.61,7.062 10.144,5.598 10.472,4.322 8.795,2.71 5.753,-0.217 2.808,-3.245 -0.175,-6.234 -0.969,-7.029 -1.819,-7.757 -3.02,-7.183 c -1.167,0.558 -1.078,1.687 -1.205,2.784 -0.118,1.022 0.847,2.602 -0.895,2.963 -1.753,0.364 -3.222,0.401 -3.176,-2.396 0.175,-10.609 0.077,-21.223 0.067,-31.835 -0.004,-6.416 -1.865,-8.243 -8.351,-8.253 -1.841,-0.003 -3.683,0.027 -5.523,-0.011 -1.351,-0.027 -2.44,-0.164 -2.464,1.892 -0.024,2.078 0.907,2.233 2.517,2.156 2.053,-0.098 4.125,0.112 6.168,-0.056 2.785,-0.229 3.543,1.042 3.523,3.633 -0.087,11.478 -0.04,22.956 -0.037,34.434 0.002,4.539 0.155,4.683 4.79,4.688 1.299,0.002 2.604,-0.075 3.897,0.018 C -1.655,2.98 -0.191,2.397 0,0"
           style="fill:#5961ff;fill-opacity:1;fill-rule:nonzero;stroke:none"
           id="path862"
           inkscape:connector-curvature="0" /></g><g
         id="g864"
         transform="translate(787.6445,176.7168)"><path
           d="m 0,0 c -0.001,-5.522 0.108,-11.047 -0.035,-16.565 -0.116,-4.473 -3.709,-2.349 -5.89,-2.82 -1.744,-0.377 -2.229,0.535 -2.162,2.186 0.054,1.315 0.333,2.134 1.817,1.916 1.887,-0.277 2.331,0.567 2.313,2.359 -0.087,8.554 -0.076,17.109 -0.007,25.662 0.014,1.683 -0.216,2.735 -2.223,2.415 -1.737,-0.277 -1.851,0.804 -1.895,2.163 -0.052,1.572 0.52,2.176 2.072,2.014 0.858,-0.09 1.735,-0.066 2.597,-0.007 2.463,0.17 3.518,-0.826 3.454,-3.407 C -0.094,10.614 0,5.306 0,0"
           style="fill:#5961ff;fill-opacity:1;fill-rule:nonzero;stroke:none"
           id="path866"
           inkscape:connector-curvature="0" /></g><g
         id="g868"
         transform="translate(787.6445,219.4727)"><path
           d="m 0,0 c 0,-5.299 -0.11,-10.6 0.045,-15.894 0.08,-2.712 -0.922,-3.802 -3.589,-3.518 -0.963,0.102 -1.954,0.102 -2.916,-0.001 -1.704,-0.184 -1.592,0.889 -1.603,2.029 -0.011,1.179 -0.002,2.255 1.637,1.975 2.075,-0.356 2.498,0.579 2.475,2.514 -0.102,8.541 -0.083,17.084 -0.01,25.625 0.014,1.7 -0.258,2.738 -2.229,2.381 -1.741,-0.313 -1.857,0.663 -1.902,2.061 -0.052,1.588 0.499,2.182 2.028,1.954 0.105,-0.017 0.215,-0.005 0.324,-0.002 5.739,0.156 5.739,0.156 5.74,-5.501 z"
           style="fill:#5961ff;fill-opacity:1;fill-rule:nonzero;stroke:none"
           id="path870"
           inkscape:connector-curvature="0" /></g><g
         id="g872"
         transform="translate(771.3193,150.667)"><path
           d="m 0,0 c -0.186,-2.995 -2.383,-5.3 -5.512,-5.358 -8.444,-0.16 -16.895,-0.175 -25.339,0.002 -3.395,0.071 -5.409,2.546 -5.576,5.986 -0.036,0.757 -0.009,1.516 -0.009,2.274 -10e-4,1.731 0,3.461 0,4.762 C -24.155,6.076 -12.226,6.081 0.036,7.659 0.036,5.488 0.169,2.734 0,0 m -36.424,17.191 c 0.148,3.287 2.624,5.621 6.228,5.69 4.002,0.075 8.007,0.016 12.009,0.016 4.003,0 8.008,0.059 12.01,-0.017 3.603,-0.068 6.083,-2.406 6.231,-5.691 0.156,-3.483 -2.208,-6.276 -5.91,-6.343 -8.22,-0.151 -16.447,-0.152 -24.666,10e-4 -3.709,0.068 -6.058,2.849 -5.902,6.344 m 0,75.833 c 12.278,-1.527 24.205,-1.536 36.466,0.005 0,-2.233 0.137,-4.991 -0.037,-7.728 -0.187,-2.953 -2.526,-5.279 -5.542,-5.319 -8.434,-0.113 -16.871,-0.119 -25.305,0.002 -3.154,0.046 -5.409,2.475 -5.557,5.641 -0.121,2.585 -0.025,5.181 -0.025,7.399 m 6.315,15.232 c 8.005,0.106 16.013,0.112 24.018,-0.01 3.777,-0.058 6.18,-2.645 6.144,-6.122 -0.034,-3.437 -2.549,-5.867 -6.32,-5.936 -4.002,-0.073 -8.005,-0.016 -12.008,-0.017 -3.896,-0.001 -7.791,-0.049 -11.686,0.012 -3.83,0.059 -6.354,2.377 -6.463,5.793 -0.114,3.623 2.335,6.227 6.315,6.28 m -6.322,-57.402 c 6.512,-2.041 30.521,-2.016 36.484,0.066 0,-2.642 0.087,-5.212 -0.022,-7.774 -0.145,-3.459 -2.481,-5.901 -6.006,-5.953 -8.108,-0.118 -16.22,-0.115 -24.33,-0.004 -3.685,0.051 -5.994,2.52 -6.11,6.18 -0.079,2.477 -0.016,4.957 -0.016,7.485 m 6.554,14.794 c 4.005,0.072 8.012,0.016 12.018,0.016 3.79,0 7.58,0.056 11.369,-0.016 3.962,-0.074 6.548,-2.548 6.545,-6.113 -0.002,-3.559 -2.591,-6.075 -6.554,-6.109 -7.795,-0.068 -15.592,-0.069 -23.387,0 -3.963,0.035 -6.539,2.551 -6.536,6.117 0.002,3.571 2.575,6.035 6.545,6.105 M -6.099,26.974 c -8.014,0.153 -16.037,0.145 -24.052,0.005 -6.327,-0.112 -10.193,-4.174 -10.335,-10.503 -0.046,-2.053 -0.008,-4.108 -0.008,-6.162 -0.296,-0.111 -0.592,-0.221 -0.889,-0.333 -1.446,1.598 -2.832,3.258 -4.361,4.772 -1.009,0.999 -1.845,2.717 -3.718,1.892 -1.654,-0.73 -1.365,-2.383 -1.194,-3.719 0.321,-2.519 -1.319,-2.26 -2.808,-2.13 -1.377,0.12 -3.356,-0.921 -3.318,2.008 0.117,8.775 0.035,17.552 0.055,26.329 10e-4,0.698 -0.345,1.812 0.598,1.944 1.593,0.222 3.324,0.382 4.836,-0.027 1.247,-0.337 0.496,-1.89 0.561,-2.885 0.072,-1.126 0.077,-2.229 1.223,-2.784 1.367,-0.662 2.271,0.251 3.058,1.165 1.755,2.039 3.459,4.122 5.617,6.706 1.921,-7.41 5.236,-10.07 11.409,-10.09 7.801,-0.025 15.604,-0.066 23.404,0.021 5.718,0.064 9.904,4.055 10.076,9.727 0.172,5.629 0.164,11.27 0.007,16.9 -0.16,5.715 -4.299,9.759 -9.975,9.822 -8.126,0.09 -16.253,0.079 -24.379,0.005 -5.87,-0.054 -9.954,-4.107 -10.182,-9.973 -0.085,-2.216 -0.013,-4.437 -0.013,-7.728 -2.175,2.282 -3.603,3.866 -5.127,5.35 -1.036,1.01 -1.879,2.665 -3.723,2.024 -1.971,-0.686 -1.432,-2.53 -1.309,-3.924 0.208,-2.337 -1.289,-2.163 -2.646,-1.937 -1.283,0.213 -3.485,-1.247 -3.467,1.786 0.055,8.994 0.015,17.987 0.029,26.98 10e-4,0.602 -0.26,1.545 0.59,1.627 1.611,0.154 3.329,0.356 4.845,-0.049 1.265,-0.338 0.477,-1.881 0.568,-2.875 0.101,-1.088 -0.055,-2.262 1.16,-2.796 1.308,-0.576 2.187,0.204 3.111,1.074 1.935,1.822 3.557,4.001 5.893,5.492 1.723,-6.023 4.918,-8.781 10.597,-8.861 7.908,-0.11 15.82,-0.142 23.728,0.013 6.336,0.124 10.227,4.18 10.335,10.505 0.085,5.091 0.074,10.185 0.005,15.276 -0.09,6.629 -4.162,10.723 -10.777,10.782 -7.692,0.07 -15.387,0.075 -23.078,-0.002 -6.596,-0.064 -10.581,-4.191 -10.765,-10.823 -0.053,-1.959 0.404,-3.979 -0.469,-6.432 -1.854,1.935 -3.399,3.583 -4.984,5.191 -0.963,0.976 -1.837,2.369 -3.522,1.639 -1.515,-0.657 -1.341,-2.15 -1.168,-3.398 0.29,-2.103 -0.579,-2.566 -2.52,-2.453 -2.807,0.164 -5.632,0.063 -8.449,0.036 -5.114,-0.048 -7.301,-2.224 -7.312,-7.337 -0.022,-9.427 -0.007,-18.853 -0.007,-28.279 0,-7.097 0,-7.097 -7.236,-7.141 -0.107,0 -0.216,0.003 -0.324,0 -1.324,-0.044 -2.763,0.469 -2.773,-1.924 -0.009,-2.221 1.136,-2.11 2.627,-2.084 2.599,0.048 5.213,0.172 7.798,-0.028 2.952,-0.228 4.002,0.796 3.962,3.85 -0.148,11.7 0.011,23.404 -0.109,35.104 -0.029,2.872 1.025,3.868 3.805,3.757 3.678,-0.147 7.366,-0.006 11.05,-0.047 1.918,-0.02 3.628,0.151 3.616,2.82 5.879,-4.942 5.868,-5.35 -0.125,-9.516 0.115,2.091 -1.052,2.642 -2.815,2.606 -2.816,-0.056 -5.635,-0.079 -8.45,0.007 -2.061,0.064 -2.992,-0.801 -2.988,-2.858 0.018,-10.944 0.004,-21.887 0.012,-32.83 10e-4,-1.393 0.302,-2.749 2.007,-2.795 3.464,-0.091 6.933,-0.051 10.399,0.011 0.463,0.008 1.237,0.377 1.325,0.718 0.77,2.989 1.82,1.09 2.757,0.185 3.095,-2.991 3.098,-3.014 0.093,-5.948 -0.677,-0.661 -1.177,-1.592 -2.293,-1.744 -0.019,1.911 -1.044,2.704 -2.887,2.679 -2.491,-0.033 -4.992,-0.138 -7.474,0.029 -2.969,0.201 -4.019,-0.986 -3.982,-3.958 0.125,-10.076 0.029,-20.154 0.064,-30.23 0.006,-1.745 -0.567,-4.509 1.977,-4.366 4.055,0.226 8.535,-2.056 12.163,1.53 0.236,0.233 -0.182,0.909 0.524,0.888 5.934,-5.638 5.889,-3.574 -0.315,-9.469 -0.149,2.481 -1.469,2.915 -3.324,2.873 -3.682,-0.083 -7.378,0.145 -11.048,-0.076 -3.175,-0.191 -4.138,1.016 -4.099,4.129 0.145,11.592 -0.029,23.187 0.116,34.779 0.038,3.053 -1.073,4.083 -3.986,3.9 -2.59,-0.163 -5.2,-0.09 -7.798,-0.012 -1.6,0.048 -2.589,-0.079 -2.594,-2.183 -0.007,-2.307 1.341,-2.018 2.751,-2.008 1.408,0.012 2.836,-0.148 4.22,0.036 2.609,0.346 3.481,-0.426 3.432,-3.259 -0.192,-10.94 -0.105,-21.885 -0.061,-32.828 0.017,-4.144 2.288,-6.401 6.423,-6.497 2.816,-0.066 5.649,-0.191 8.447,0.036 2.581,0.208 3.9,-0.387 3.388,-3.251 -0.196,-1.104 0.009,-2.185 1.239,-2.712 1.244,-0.533 2.059,0.208 2.83,0.992 1.884,1.916 3.75,3.852 5.748,5.907 2.295,-6.402 5.351,-9.106 10.638,-9.186 8.016,-0.121 16.037,-0.14 24.053,0.004 6.05,0.108 10.13,4.28 10.255,10.305 0.11,5.307 0.104,10.619 0,15.927 -0.12,6.138 -4.039,10.188 -10.188,10.307"
           style="fill:#5961ff;fill-opacity:1;fill-rule:nonzero;stroke:none"
           id="path874"
           inkscape:connector-curvature="0" /></g><g
         id="g876"
         transform="translate(761.2393,196.0039)"><path
           d="M 0,0 C 1.451,0.222 2.161,-0.233 2.148,-1.874 2.136,-3.423 1.862,-4.204 0.047,-4.197 -1.711,-4.191 -2.111,-3.529 -2.103,-1.92 -2.093,-0.338 -1.504,0.242 0,0"
           style="fill:#5961ff;fill-opacity:1;fill-rule:nonzero;stroke:none"
           id="path878"
           inkscape:connector-curvature="0" /></g><g
         id="g880"
         transform="translate(753.4316,196.0537)"><path
           d="M 0,0 C 2.24,0.289 1.608,-1.37 1.733,-2.554 1.937,-4.49 0.596,-4.152 -0.58,-4.248 -2.798,-4.429 -2.211,-2.856 -2.329,-1.66 -2.518,0.269 -1.209,0.047 0,0"
           style="fill:#5961ff;fill-opacity:1;fill-rule:nonzero;stroke:none"
           id="path882"
           inkscape:connector-curvature="0" /></g><g
         id="g884"
         transform="translate(747.2676,193.8506)"><path
           d="m 0,0 c 0.295,-1.786 -0.598,-2.191 -2.211,-2.241 -1.871,-0.057 -2.402,0.659 -2.39,2.451 0.012,1.721 0.654,2.197 2.291,2.223 C -0.467,2.461 0.321,1.825 0,0"
           style="fill:#5961ff;fill-opacity:1;fill-rule:nonzero;stroke:none"
           id="path886"
           inkscape:connector-curvature="0" /></g><g
         id="g888"
         transform="translate(747.1006,236.707)"><path
           d="m 0,0 c 0.222,-1.403 -0.062,-2.296 -1.806,-2.176 -1.335,0.092 -2.614,-0.171 -2.454,1.922 0.103,1.338 0.115,2.325 1.878,2.202 C -1.042,1.854 0.393,2.105 0,0"
           style="fill:#5961ff;fill-opacity:1;fill-rule:nonzero;stroke:none"
           id="path890"
           inkscape:connector-curvature="0" /></g><g
         id="g892"
         transform="translate(761.458,234.6104)"><path
           d="m 0,0 c -1.562,-0.214 -2.394,0.033 -2.372,1.791 0.018,1.636 0.393,2.292 2.163,2.284 C 1.521,4.068 1.994,3.496 1.979,1.818 1.966,0.146 1.317,-0.323 0,0"
           style="fill:#5961ff;fill-opacity:1;fill-rule:nonzero;stroke:none"
           id="path894"
           inkscape:connector-curvature="0" /></g><g
         id="g896"
         transform="translate(755.0605,236.6865)"><path
           d="m 0,0 c 0.482,-2.041 -0.638,-2.08 -2.105,-2.149 -1.697,-0.081 -1.786,0.7 -1.87,2.067 -0.111,1.832 0.71,2.035 2.235,2.036 C -0.144,1.954 0.404,1.386 0,0"
           style="fill:#5961ff;fill-opacity:1;fill-rule:nonzero;stroke:none"
           id="path898"
           inkscape:connector-curvature="0" /></g><g
         id="g900"
         transform="translate(747.0977,151.3047)"><path
           d="M 0,0 C 0.396,-1.932 -0.749,-2.04 -2.253,-2.082 -3.867,-2.127 -4.197,-1.483 -4.269,0.01 -4.36,1.924 -3.436,2.048 -1.927,2.07 -0.353,2.094 0.308,1.582 0,0"
           style="fill:#5961ff;fill-opacity:1;fill-rule:nonzero;stroke:none"
           id="path902"
           inkscape:connector-curvature="0" /></g><g
         id="g904"
         transform="translate(763.3584,151.168)"><path
           d="M 0,0 C 0.383,-2.128 -1.084,-1.831 -2.404,-1.929 -4.189,-2.063 -4.156,-1.025 -4.261,0.292 -4.43,2.411 -3.099,2.091 -1.787,2.191 -0.017,2.326 0.205,1.375 0,0"
           style="fill:#5961ff;fill-opacity:1;fill-rule:nonzero;stroke:none"
           id="path906"
           inkscape:connector-curvature="0" /></g><g
         id="g908"
         transform="translate(753,153.2754)"><path
           d="M 0,0 C 1.33,0.18 2.295,0.097 2.176,-1.706 2.085,-3.086 2.202,-4.199 0.234,-4.021 -1.028,-3.908 -2.046,-4.032 -1.901,-2.228 -1.794,-0.882 -2.009,0.454 0,0"
           style="fill:#5961ff;fill-opacity:1;fill-rule:nonzero;stroke:none"
           id="path910"
           inkscape:connector-curvature="0" /></g><g
         id="g912"
         transform="translate(746.6299,193.8711)"><path
           d="m 0,0 c 0.147,-1.365 -0.653,-1.581 -1.781,-1.578 -1.126,0.003 -1.468,0.524 -1.497,1.57 -0.034,1.204 0.386,1.751 1.653,1.745 C -0.374,1.731 0.151,1.223 0,0"
           style="fill:#5961ff;fill-opacity:1;fill-rule:nonzero;stroke:none"
           id="path914"
           inkscape:connector-curvature="0" /></g></g><g
       id="g72"
       transform="translate(756.6992,311.8867)"><path
         d="m 0,0 c 0.032,-1.6 0.064,-3.2 0.098,-4.8 0.033,-1.612 0.203,-3.229 0.107,-4.834 -0.14,-2.349 0.912,-3.272 3.493,-2.91 1.062,0.148 2.168,0.024 3.628,0.024 -2.798,-7.406 -5.479,-14.505 -8.449,-22.367 -3.124,7.337 -5.992,13.96 -8.751,20.62 -0.803,1.938 1.011,1.539 2.103,1.597 4.333,0.227 4.339,0.212 4.264,4.202 -0.218,11.487 -0.446,22.973 -0.653,34.459 -0.023,1.243 -0.501,2.727 1.937,2.645 C 0.052,28.559 -0.581,27.09 -0.556,26.03 -0.347,17.354 -0.177,8.677 0,0"
         style="fill:#0048ce;fill-opacity:1;fill-rule:nonzero;stroke:none"
         id="path74"
         inkscape:connector-curvature="0" /></g><g
       id="g76"
       transform="translate(413.1602,122.832)"><path
         d="M 0,0 C -0.021,5.781 5.038,10.198 11.747,10.256 18.705,10.316 24.282,5.832 24.267,0.187 24.252,-5.305 18.73,-9.931 12.185,-9.934 5.413,-9.938 0.021,-5.542 0,0"
         style="fill:#cf4245;fill-opacity:1;fill-rule:nonzero;stroke:none"
         id="path78"
         inkscape:connector-curvature="0" /></g><g
       id="g80"
       transform="translate(423.1162,141.9648)"><path
         d="m 0,0 c 0.232,-1.344 -0.402,-2.449 -2.713,-2.789 -1.471,-0.217 -3.183,-0.527 -4.223,-1.313 -3.401,-2.569 -5.312,-0.592 -7.356,1.359 -0.685,0.652 -1.982,1.205 -0.818,2.248 1.096,0.982 1.904,0.169 2.781,-0.427 3.359,-2.279 8.728,-0.423 9.368,3.232 0.138,0.789 -0.035,1.777 1.314,1.812 1.703,0.045 1.342,-1.15 1.46,-2.005 C -0.107,1.546 -0.083,0.969 0,0"
         style="fill:#cc514d;fill-opacity:1;fill-rule:nonzero;stroke:none"
         id="path82"
         inkscape:connector-curvature="0" /></g><g
       id="g84"
       transform="translate(422.7598,102.708)"><path
         d="m 0,0 c -0.069,-0.894 1.171,-2.535 -0.987,-2.697 -2.159,-0.161 -1.614,1.517 -1.623,2.557 -0.028,3.111 -3.667,2.176 -5.375,3.4 -1.3,0.932 -2.473,0.492 -3.58,-0.499 -0.744,-0.666 -1.458,-2.093 -2.934,-1.021 -1.788,1.301 0.343,1.906 0.981,2.738 1.904,2.479 4.169,2.974 7.025,0.946 C -5.797,4.93 -4.765,4.701 -3.84,4.507 -1.062,3.924 1.349,3.17 0,0"
         style="fill:#d24b4f;fill-opacity:1;fill-rule:nonzero;stroke:none"
         id="path86"
         inkscape:connector-curvature="0" /></g><g
       id="g88"
       transform="translate(452.9556,119.9043)"><path
         d="m 0,0 c -0.196,-1.127 -1.292,-1.142 -2.195,-1.007 -3.974,0.595 -3.582,-2.385 -4.833,-4.008 -1.123,-1.457 -1.061,-2.731 0.735,-3.865 0.845,-0.534 1.855,-1.319 0.666,-2.257 -1.177,-0.928 -1.921,0.074 -2.74,0.636 -2.547,1.748 -4.181,3.562 -1.443,6.231 0.761,0.742 1.025,1.864 1.408,2.841 0.895,2.28 5.179,3.707 7.681,2.535 C -0.184,0.854 0.076,0.518 0,0"
         style="fill:#cc474b;fill-opacity:1;fill-rule:nonzero;stroke:none"
         id="path90"
         inkscape:connector-curvature="0" /></g><g
       id="g92"
       transform="translate(427.7422,102.624)"><path
         d="m 0,0 c -1.037,3.123 0.622,4.085 3.303,4.536 1.191,0.2 2.343,0.662 3.443,1.123 3.238,1.357 6.088,0.62 7.822,-2.018 C 15.033,2.934 15.085,2.356 14.375,1.803 13.482,1.105 12.895,1.78 12.256,2.164 8.396,4.487 3.208,2.904 2.469,-0.857 2.308,-1.679 2.33,-2.68 1.009,-2.509 -1.492,-2.187 0.411,-0.39 0,0"
         style="fill:#cd4846;fill-opacity:1;fill-rule:nonzero;stroke:none"
         id="path94"
         inkscape:connector-curvature="0" /></g><g
       id="g96"
       transform="translate(401.8394,124.9414)"><path
         d="m 0,0 c -1.126,0 -1.819,-0.01 -2.511,0.003 -0.875,0.016 -1.721,0.151 -1.752,1.062 -0.03,0.879 0.751,1.293 1.634,1.161 3.36,-0.508 3.854,1.491 5.085,3.381 1.408,2.164 1.093,3.53 -1.039,4.947 -0.707,0.469 -0.968,1.09 -0.185,1.76 0.805,0.689 1.483,0.377 2.117,-0.145 C 5.596,10.321 9.017,8.771 5.536,5.544 4.839,4.897 4.368,3.908 4.25,3.034 3.921,0.592 2.528,-0.487 0,0"
         style="fill:#cd4645;fill-opacity:1;fill-rule:nonzero;stroke:none"
         id="path98"
         inkscape:connector-curvature="0" /></g><g
       id="g100"
       transform="translate(427.4917,142.8906)"><path
         d="m 0,0 c 0,0.574 -0.024,1.148 0.006,1.722 0.037,0.695 0.083,1.449 1.223,1.472 1.051,0.021 1.242,-0.61 1.442,-1.347 1.19,-4.383 5.624,-5.921 9.847,-3.415 1.059,0.629 2.295,1.024 2.526,-0.273 C 15.375,-3.709 12.88,-4.263 11.783,-5.499 10.904,-6.49 9.997,-6.637 8.637,-5.924 7.029,-5.081 5.271,-4.358 3.467,-3.869 -0.055,-2.914 -0.087,-2.997 0,0"
         style="fill:#d04744;fill-opacity:1;fill-rule:nonzero;stroke:none"
         id="path102"
         inkscape:connector-curvature="0" /></g><g
       id="g104"
       transform="translate(401.936,121.1367)"><path
         d="m 0,0 c 2.462,0.576 3.646,-0.555 4.066,-2.765 0.188,-0.988 0.619,-2.09 1.376,-2.831 3.215,-3.141 0.13,-4.762 -2.124,-6.594 -0.593,-0.483 -1.311,-0.927 -2.125,-0.232 -0.853,0.729 -0.55,1.33 0.14,2.079 2.988,3.243 0.966,7.56 -3.734,8.042 -0.969,0.099 -1.989,-0.012 -2.022,1.157 -0.036,1.232 1.046,1.119 1.998,1.14 C -1.739,0.013 -1.051,0 0,0"
         style="fill:#cd4743;fill-opacity:1;fill-rule:nonzero;stroke:none"
         id="path106"
         inkscape:connector-curvature="0" /></g><g
       id="g108"
       transform="translate(448.562,124.9551)"><path
         d="m 0,0 c -2.4,-0.536 -3.746,0.402 -4.125,2.714 -0.162,0.99 -0.852,1.932 -1.379,2.867 -1.777,3.147 -1.156,4.863 2.353,6.726 0.659,0.349 1.211,0.563 1.837,0.158 0.806,-0.522 0.893,-1.305 0.102,-1.748 C -5.464,8.337 -2.057,5.9 -1.354,3.501 -0.955,2.134 0.454,2.36 1.678,2.287 2.837,2.217 4.533,2.518 4.31,0.904 4.129,-0.404 2.584,0.15 1.594,0.009 1.191,-0.049 0.766,0 0,0"
         style="fill:#cc4245;fill-opacity:1;fill-rule:nonzero;stroke:none"
         id="path110"
         inkscape:connector-curvature="0" /></g><g
       id="g112"
       transform="translate(318.5024,293.9531)"><path
         d="M 0,0 C -0.028,5.582 5.013,9.893 11.669,9.981 18.734,10.076 24.213,5.634 24.142,-0.13 24.073,-5.753 18.704,-10.179 11.951,-10.178 5.206,-10.178 0.029,-5.769 0,0"
         style="fill:#ca4344;fill-opacity:1;fill-rule:nonzero;stroke:none"
         id="path114"
         inkscape:connector-curvature="0" /></g><g
       id="g116"
       transform="translate(328.3735,274.1523)"><path
         d="m 0,0 c 0,-0.711 0.012,-1.17 -0.003,-1.628 -0.026,-0.831 -0.104,-1.695 -1.404,-1.762 -1.318,-0.066 -1.407,0.769 -1.591,1.608 -0.909,4.165 -5.676,5.736 -9.758,3.219 -0.662,-0.408 -1.162,-1.058 -2.071,-0.41 -0.949,0.677 -0.808,1.362 0.014,2.04 2.227,1.837 4.069,4.644 7.914,1.759 C -6.05,4.189 -4.647,3.952 -3.447,3.773 -0.647,3.354 0.669,2.17 0,0"
         style="fill:#d34b4b;fill-opacity:1;fill-rule:nonzero;stroke:none"
         id="path118"
         inkscape:connector-curvature="0" /></g><g
       id="g120"
       transform="translate(306.3516,295.6445)"><path
         d="m 0,0 c -1.222,0.136 -3.151,-0.619 -3.444,0.976 -0.343,1.867 1.75,1.434 2.943,1.412 3.815,-0.07 2.697,2.986 4.146,4.4 1.218,1.189 0.619,2.24 -0.656,3.264 C 2.269,10.63 0.443,11.264 2.083,12.458 3.549,13.526 4.205,12.085 5.114,11.56 7.918,9.939 8.634,8.072 6.309,5.649 5.568,4.877 5.072,3.791 4.928,2.802 4.553,0.219 2.782,-0.429 0,0"
         style="fill:#d0494b;fill-opacity:1;fill-rule:nonzero;stroke:none"
         id="path122"
         inkscape:connector-curvature="0" /></g><g
       id="g124"
       transform="translate(332.6816,274.0312)"><path
         d="M 0,0 C -0.494,2.155 0.342,3.473 3.216,3.785 4.544,3.93 6.062,4.319 7.034,5.033 11.048,7.979 12.669,4.699 14.949,3.089 15.729,2.537 15.734,1.936 15.026,1.327 14.316,0.717 13.529,0.672 12.922,1.346 11.146,3.319 9.409,3.466 6.643,2.278 4.237,1.245 2.13,0.656 2.663,-2.041 2.773,-2.6 2.503,-3.222 1.63,-3.294 0.623,-3.377 0.095,-2.876 0.015,-2.093 -0.056,-1.408 0,-0.715 0,0"
         style="fill:#d44c4e;fill-opacity:1;fill-rule:nonzero;stroke:none"
         id="path126"
         inkscape:connector-curvature="0" /></g><g
       id="g128"
       transform="translate(355.4272,295.793)"><path
         d="m 0,0 c -3.621,-0.459 -5.534,0.16 -5.733,2.957 -0.069,0.971 -0.832,1.927 -1.37,2.853 -1.669,2.874 -0.915,4.893 2.345,6.498 0.853,0.42 1.463,0.484 2.157,-0.108 0.867,-0.739 0.248,-1.285 -0.409,-1.682 C -5.398,9.078 -5.164,7.561 -3.868,5.541 -2.777,3.84 -2.572,1.749 0.728,2.251 1.592,2.383 2.917,2.299 2.791,1.14 2.566,-0.904 0.498,0.144 0,0"
         style="fill:#cf4c4b;fill-opacity:1;fill-rule:nonzero;stroke:none"
         id="path130"
         inkscape:connector-curvature="0" /></g><g
       id="g132"
       transform="translate(328.1089,314.4258)"><path
         d="m 0,0 c 0.801,-2.948 -0.176,-4.171 -2.97,-4.513 -1.321,-0.161 -2.601,-0.717 -3.827,-1.219 -3.526,-1.442 -5.947,-0.826 -7.906,2.047 -0.363,0.532 -0.684,0.974 -0.052,1.505 0.702,0.592 1.55,0.733 2.103,0.039 2.876,-3.609 5.802,-0.36 8.679,-0.067 1.205,0.123 1.155,1.082 1.287,1.893 0.179,1.093 -0.745,3.012 1.733,2.751 C 1.253,2.204 -0.224,0.328 0,0"
         style="fill:#d04d4d;fill-opacity:1;fill-rule:nonzero;stroke:none"
         id="path134"
         inkscape:connector-curvature="0" /></g><g
       id="g136"
       transform="translate(333.9487,317.0215)"><path
         d="m 0,0 c 1.639,-0.246 1.353,-1.166 1.472,-1.92 0.55,-3.504 6.11,-5.42 9.527,-3.28 0.846,0.529 1.604,1.484 2.752,0.435 1.233,-1.127 -0.344,-1.577 -0.898,-2.218 -1.987,-2.303 -4.19,-3.472 -7.398,-1.214 -0.986,0.694 -2.52,0.861 -3.822,1.225 -2.449,0.686 -4.125,4.514 -2.693,6.299 0.265,0.329 0.795,0.51 1.06,0.673"
         style="fill:#d44c4c;fill-opacity:1;fill-rule:nonzero;stroke:none"
         id="path138"
         inkscape:connector-curvature="0" /></g><g
       id="g140"
       transform="translate(307.1191,292.0352)"><path
         d="m 0,0 c 2.11,0.316 3.78,-0.243 4.102,-2.713 0.143,-1.096 0.881,-2.167 1.504,-3.183 1.641,-2.672 0.789,-5.014 -2.404,-6.53 -0.67,-0.318 -1.236,-0.461 -1.847,-0.015 -0.782,0.571 -0.799,1.262 0.004,1.734 4.645,2.726 0.178,5.238 -0.327,7.794 -0.213,1.077 -1.872,0.569 -2.904,0.67 -1.025,0.099 -2.498,-0.247 -2.395,1.174 0.097,1.335 1.543,0.989 2.573,1.064 C -1.284,0.025 -0.868,0 0,0"
         style="fill:#ce4649;fill-opacity:1;fill-rule:nonzero;stroke:none"
         id="path142"
         inkscape:connector-curvature="0" /></g><g
       id="g144"
       transform="translate(354.1313,291.9814)"><path
         d="M 0,0 C 0.959,0 1.79,0.026 2.617,-0.008 3.339,-0.036 3.99,-0.229 4.088,-0.942 4.222,-1.913 3.362,-2.223 2.537,-2.103 -0.7,-1.633 -1.454,-3.306 -2.58,-5.374 c -1.198,-2.203 -1.519,-3.771 1.035,-5.247 0.612,-0.354 0.92,-0.93 0.352,-1.465 -0.321,-0.301 -0.912,-0.606 -1.353,-0.58 -2.515,0.151 -4.89,4.26 -3.697,6.188 0.756,1.223 1.803,2.486 1.925,3.782 C -4.076,-0.114 -2.447,0.366 0,0"
         style="fill:#c84748;fill-opacity:1;fill-rule:nonzero;stroke:none"
         id="path146"
         inkscape:connector-curvature="0" /></g><g
       id="g148"
       transform="translate(616.1602,122.832)"><path
         d="M 0,0 C -0.021,5.781 5.037,10.198 11.746,10.256 18.705,10.316 24.281,5.832 24.267,0.187 24.253,-5.305 18.73,-9.931 12.185,-9.934 5.412,-9.938 0.021,-5.542 0,0"
         style="fill:#cf4245;fill-opacity:1;fill-rule:nonzero;stroke:none"
         id="path150"
         inkscape:connector-curvature="0" /></g><g
       id="g152"
       transform="translate(626.1162,141.9648)"><path
         d="m 0,0 c 0.231,-1.344 -0.402,-2.449 -2.713,-2.789 -1.471,-0.217 -3.183,-0.527 -4.223,-1.313 -3.402,-2.569 -5.312,-0.592 -7.356,1.359 -0.685,0.652 -1.982,1.205 -0.818,2.248 1.096,0.982 1.904,0.169 2.782,-0.427 3.358,-2.279 8.726,-0.423 9.367,3.232 0.139,0.789 -0.035,1.777 1.314,1.812 1.703,0.045 1.341,-1.15 1.46,-2.005 C -0.107,1.546 -0.083,0.969 0,0"
         style="fill:#cc514d;fill-opacity:1;fill-rule:nonzero;stroke:none"
         id="path154"
         inkscape:connector-curvature="0" /></g><g
       id="g156"
       transform="translate(625.7598,102.708)"><path
         d="m 0,0 c -0.069,-0.894 1.171,-2.535 -0.987,-2.697 -2.159,-0.161 -1.614,1.517 -1.623,2.557 -0.028,3.111 -3.667,2.176 -5.374,3.4 -1.301,0.932 -2.474,0.492 -3.581,-0.499 -0.744,-0.666 -1.458,-2.093 -2.933,-1.021 -1.789,1.301 0.342,1.906 0.98,2.738 1.904,2.479 4.169,2.974 7.025,0.946 C -5.798,4.93 -4.765,4.701 -3.84,4.507 -1.062,3.924 1.349,3.17 0,0"
         style="fill:#d24b4f;fill-opacity:1;fill-rule:nonzero;stroke:none"
         id="path158"
         inkscape:connector-curvature="0" /></g><g
       id="g160"
       transform="translate(655.9551,119.9043)"><path
         d="m 0,0 c -0.196,-1.127 -1.292,-1.142 -2.194,-1.007 -3.975,0.595 -3.582,-2.385 -4.834,-4.008 -1.122,-1.457 -1.061,-2.731 0.735,-3.865 0.846,-0.534 1.856,-1.319 0.666,-2.257 -1.177,-0.928 -1.921,0.074 -2.74,0.636 -2.546,1.748 -4.181,3.562 -1.443,6.231 0.761,0.742 1.026,1.864 1.409,2.841 0.894,2.28 5.178,3.707 7.681,2.535 C -0.184,0.854 0.076,0.518 0,0"
         style="fill:#cc474b;fill-opacity:1;fill-rule:nonzero;stroke:none"
         id="path162"
         inkscape:connector-curvature="0" /></g><g
       id="g164"
       transform="translate(630.7422,102.624)"><path
         d="m 0,0 c -1.036,3.123 0.622,4.085 3.303,4.536 1.191,0.2 2.343,0.662 3.442,1.123 3.238,1.357 6.089,0.62 7.823,-2.018 C 15.033,2.934 15.085,2.356 14.375,1.803 13.482,1.105 12.895,1.78 12.257,2.164 8.396,4.487 3.208,2.904 2.469,-0.857 2.308,-1.679 2.33,-2.68 1.01,-2.509 -1.492,-2.187 0.41,-0.39 0,0"
         style="fill:#cd4846;fill-opacity:1;fill-rule:nonzero;stroke:none"
         id="path166"
         inkscape:connector-curvature="0" /></g><g
       id="g168"
       transform="translate(604.8398,124.9414)"><path
         d="m 0,0 c -1.127,0 -1.819,-0.01 -2.511,0.003 -0.875,0.016 -1.721,0.151 -1.753,1.062 -0.029,0.879 0.751,1.293 1.634,1.161 3.361,-0.508 3.855,1.491 5.086,3.381 1.407,2.164 1.093,3.53 -1.039,4.947 -0.707,0.469 -0.969,1.09 -0.186,1.76 0.805,0.689 1.484,0.377 2.118,-0.145 C 5.595,10.321 9.017,8.771 5.536,5.544 4.839,4.897 4.367,3.908 4.249,3.034 3.921,0.592 2.528,-0.487 0,0"
         style="fill:#cd4645;fill-opacity:1;fill-rule:nonzero;stroke:none"
         id="path170"
         inkscape:connector-curvature="0" /></g><g
       id="g172"
       transform="translate(630.4922,142.8906)"><path
         d="M 0,0 C 0,0.574 -0.024,1.148 0.006,1.722 0.042,2.417 0.089,3.171 1.229,3.194 2.28,3.215 2.47,2.584 2.67,1.847 c 1.19,-4.383 5.625,-5.921 9.848,-3.415 1.059,0.629 2.295,1.024 2.525,-0.273 C 15.375,-3.709 12.88,-4.263 11.782,-5.499 10.903,-6.49 9.996,-6.637 8.637,-5.924 7.028,-5.081 5.271,-4.358 3.466,-3.869 -0.056,-2.914 -0.088,-2.997 0,0"
         style="fill:#d04744;fill-opacity:1;fill-rule:nonzero;stroke:none"
         id="path174"
         inkscape:connector-curvature="0" /></g><g
       id="g176"
       transform="translate(604.9355,121.1367)"><path
         d="m 0,0 c 2.463,0.576 3.647,-0.555 4.067,-2.765 0.188,-0.988 0.619,-2.09 1.375,-2.831 3.215,-3.141 0.131,-4.762 -2.124,-6.594 -0.593,-0.483 -1.31,-0.927 -2.125,-0.232 -0.852,0.729 -0.549,1.33 0.141,2.079 2.987,3.243 0.966,7.56 -3.734,8.042 -0.97,0.099 -1.99,-0.012 -2.023,1.157 -0.035,1.232 1.046,1.119 1.998,1.14 C -1.738,0.013 -1.051,0 0,0"
         style="fill:#cd4743;fill-opacity:1;fill-rule:nonzero;stroke:none"
         id="path178"
         inkscape:connector-curvature="0" /></g><g
       id="g180"
       transform="translate(651.5615,124.9551)"><path
         d="m 0,0 c -2.399,-0.536 -3.746,0.402 -4.124,2.714 -0.162,0.99 -0.853,1.932 -1.38,2.867 -1.776,3.147 -1.155,4.863 2.354,6.726 0.659,0.349 1.211,0.563 1.837,0.158 0.805,-0.522 0.893,-1.305 0.101,-1.748 C -5.464,8.337 -2.057,5.9 -1.354,3.501 -0.954,2.134 0.454,2.36 1.679,2.287 2.838,2.217 4.533,2.518 4.311,0.904 4.13,-0.404 2.584,0.15 1.594,0.009 1.191,-0.049 0.767,0 0,0"
         style="fill:#cc4245;fill-opacity:1;fill-rule:nonzero;stroke:none"
         id="path182"
         inkscape:connector-curvature="0" /></g><g
       id="g184"
       transform="translate(616.0029,265.4531)"><path
         d="M 0,0 C -0.028,5.582 5.013,9.893 11.669,9.981 18.734,10.076 24.213,5.634 24.142,-0.13 24.073,-5.753 18.704,-10.179 11.95,-10.178 5.205,-10.178 0.028,-5.769 0,0"
         style="fill:#ca4344;fill-opacity:1;fill-rule:nonzero;stroke:none"
         id="path186"
         inkscape:connector-curvature="0" /></g><g
       id="g188"
       transform="translate(625.873,245.6523)"><path
         d="m 0,0 c 0,-0.711 0.012,-1.17 -0.002,-1.628 -0.026,-0.831 -0.104,-1.695 -1.404,-1.762 -1.319,-0.066 -1.407,0.769 -1.591,1.608 -0.909,4.165 -5.677,5.736 -9.759,3.219 -0.662,-0.408 -1.161,-1.058 -2.07,-0.41 -0.95,0.677 -0.809,1.362 0.014,2.04 2.226,1.837 4.069,4.644 7.913,1.759 C -6.05,4.189 -4.646,3.952 -3.446,3.773 -0.646,3.354 0.67,2.17 0,0"
         style="fill:#d34b4b;fill-opacity:1;fill-rule:nonzero;stroke:none"
         id="path190"
         inkscape:connector-curvature="0" /></g><g
       id="g192"
       transform="translate(603.8516,267.1445)"><path
         d="m 0,0 c -1.222,0.136 -3.151,-0.619 -3.443,0.976 -0.343,1.867 1.75,1.434 2.942,1.412 3.815,-0.07 2.696,2.986 4.147,4.4 1.217,1.189 0.619,2.24 -0.657,3.264 C 2.269,10.63 0.443,11.264 2.083,12.458 3.55,13.526 4.205,12.085 5.114,11.56 7.918,9.939 8.635,8.072 6.309,5.649 5.567,4.877 5.072,3.791 4.929,2.802 4.553,0.219 2.781,-0.429 0,0"
         style="fill:#d0494b;fill-opacity:1;fill-rule:nonzero;stroke:none"
         id="path194"
         inkscape:connector-curvature="0" /></g><g
       id="g196"
       transform="translate(630.1816,245.5312)"><path
         d="M 0,0 C -0.494,2.155 0.342,3.473 3.216,3.785 4.544,3.93 6.062,4.319 7.033,5.033 11.048,7.979 12.669,4.699 14.949,3.089 15.729,2.537 15.734,1.936 15.025,1.327 14.316,0.717 13.528,0.672 12.922,1.346 11.146,3.319 9.409,3.466 6.644,2.278 4.237,1.245 2.131,0.656 2.663,-2.041 2.773,-2.6 2.503,-3.222 1.63,-3.294 0.623,-3.377 0.095,-2.876 0.015,-2.093 -0.056,-1.408 0,-0.715 0,0"
         style="fill:#d44c4e;fill-opacity:1;fill-rule:nonzero;stroke:none"
         id="path198"
         inkscape:connector-curvature="0" /></g><g
       id="g200"
       transform="translate(652.9277,267.293)"><path
         d="m 0,0 c -3.621,-0.459 -5.534,0.16 -5.733,2.957 -0.07,0.971 -0.832,1.927 -1.371,2.853 -1.668,2.874 -0.915,4.893 2.345,6.498 0.854,0.42 1.463,0.484 2.158,-0.108 0.867,-0.739 0.247,-1.285 -0.41,-1.682 C -5.398,9.078 -5.164,7.561 -3.868,5.541 -2.777,3.84 -2.573,1.749 0.728,2.251 1.592,2.383 2.917,2.299 2.79,1.14 2.565,-0.904 0.498,0.144 0,0"
         style="fill:#cf4c4b;fill-opacity:1;fill-rule:nonzero;stroke:none"
         id="path202"
         inkscape:connector-curvature="0" /></g><g
       id="g204"
       transform="translate(625.6084,285.9258)"><path
         d="m 0,0 c 0.802,-2.948 -0.176,-4.171 -2.97,-4.513 -1.32,-0.161 -2.6,-0.717 -3.826,-1.219 -3.526,-1.442 -5.947,-0.826 -7.907,2.047 -0.362,0.532 -0.684,0.974 -0.052,1.505 0.702,0.592 1.551,0.733 2.104,0.039 2.875,-3.609 5.801,-0.36 8.678,-0.067 1.205,0.123 1.156,1.082 1.287,1.893 0.179,1.093 -0.745,3.012 1.733,2.751 C 1.254,2.204 -0.224,0.328 0,0"
         style="fill:#d04d4d;fill-opacity:1;fill-rule:nonzero;stroke:none"
         id="path206"
         inkscape:connector-curvature="0" /></g><g
       id="g208"
       transform="translate(631.4492,288.5215)"><path
         d="m 0,0 c 1.639,-0.246 1.353,-1.166 1.472,-1.92 0.549,-3.504 6.11,-5.42 9.527,-3.28 0.845,0.529 1.604,1.484 2.751,0.435 1.233,-1.127 -0.344,-1.577 -0.897,-2.218 -1.988,-2.303 -4.191,-3.472 -7.398,-1.214 -0.986,0.694 -2.521,0.861 -3.822,1.225 -2.449,0.686 -4.126,4.514 -2.693,6.299 0.264,0.329 0.794,0.51 1.06,0.673"
         style="fill:#d44c4c;fill-opacity:1;fill-rule:nonzero;stroke:none"
         id="path210"
         inkscape:connector-curvature="0" /></g><g
       id="g212"
       transform="translate(604.6191,263.5352)"><path
         d="m 0,0 c 2.109,0.316 3.78,-0.243 4.103,-2.713 0.142,-1.096 0.88,-2.167 1.503,-3.183 1.641,-2.672 0.789,-5.014 -2.404,-6.53 -0.67,-0.318 -1.236,-0.461 -1.847,-0.015 -0.782,0.571 -0.799,1.262 0.004,1.734 4.645,2.726 0.178,5.238 -0.327,7.794 -0.213,1.077 -1.872,0.569 -2.904,0.67 -1.025,0.099 -2.498,-0.247 -2.395,1.174 0.097,1.335 1.543,0.989 2.574,1.064 C -1.283,0.025 -0.867,0 0,0"
         style="fill:#ce4649;fill-opacity:1;fill-rule:nonzero;stroke:none"
         id="path214"
         inkscape:connector-curvature="0" /></g><g
       id="g216"
       transform="translate(651.6318,263.4814)"><path
         d="m 0,0 c 0.959,0 1.79,0.026 2.617,-0.008 0.722,-0.028 1.372,-0.221 1.471,-0.934 0.134,-0.971 -0.727,-1.281 -1.552,-1.161 -3.236,0.47 -3.99,-1.203 -5.116,-3.271 -1.199,-2.203 -1.52,-3.771 1.034,-5.247 0.612,-0.354 0.921,-0.93 0.353,-1.465 -0.322,-0.301 -0.912,-0.606 -1.354,-0.58 -2.515,0.151 -4.89,4.26 -3.697,6.188 0.757,1.223 1.804,2.486 1.926,3.782 C -4.076,-0.114 -2.447,0.366 0,0"
         style="fill:#c84748;fill-opacity:1;fill-rule:nonzero;stroke:none"
         id="path218"
         inkscape:connector-curvature="0" /></g><g
       id="g519"
       transform="translate(-739.50002,96.000002)"><g
         id="g20"
         transform="translate(851.0703,278.7544)"><path
           d="m 0,0 c -0.032,1.317 -0.065,2.634 -0.099,3.951 -0.033,1.327 -0.203,2.658 -0.107,3.979 0.14,1.934 -0.911,2.694 -3.493,2.396 -1.061,-0.122 -2.168,-0.02 -3.628,-0.02 2.798,6.096 5.479,11.94 8.449,18.41 C 4.247,22.677 7.114,17.226 9.873,11.744 10.677,10.148 8.863,10.477 7.771,10.43 3.438,10.243 3.431,10.255 3.507,6.97 c 0.217,-9.454 0.446,-18.909 0.652,-28.364 0.023,-1.023 0.502,-2.245 -1.937,-2.177 -2.275,0.064 -1.641,1.273 -1.666,2.146 C 0.346,-14.284 0.176,-7.142 0,0"
           style="fill:#0048ce;fill-opacity:1;fill-rule:nonzero;stroke:none"
           id="path22"
           inkscape:connector-curvature="0" /></g><g
         id="g24"
         transform="translate(883.8164,283.897)"><path
           d="m 0,0 c 0.032,-1.317 0.065,-2.634 0.098,-3.951 0.034,-1.326 0.204,-2.658 0.108,-3.979 -0.141,-1.934 0.911,-2.693 3.493,-2.396 1.061,0.123 2.167,0.021 3.627,0.021 -2.797,-6.097 -5.479,-11.941 -8.449,-18.411 -3.124,6.039 -5.991,11.491 -8.751,16.973 -0.803,1.596 1.011,1.266 2.103,1.314 4.333,0.187 4.34,0.175 4.264,3.459 -0.217,9.455 -0.446,18.909 -0.653,28.365 -0.022,1.022 -0.501,2.244 1.937,2.176 2.275,-0.064 1.642,-1.272 1.667,-2.145 C -0.347,14.285 -0.177,7.142 0,0"
           style="fill:#0048ce;fill-opacity:1;fill-rule:nonzero;stroke:none"
           id="path26"
           inkscape:connector-curvature="0" /></g><g
         id="g28"
         transform="translate(826.0625,197.6768)"><path
           d="m 0,0 c 0,9.441 0.062,18.883 -0.038,28.323 -0.029,2.772 0.689,4.458 4.621,3.924 1.688,-0.229 3.461,-0.096 5.189,-0.033 1.818,0.065 2.639,-0.454 2.623,-2.094 C 12.379,28.628 11.583,27.984 10.006,28.216 5.435,28.884 4.928,26.899 4.96,23.717 5.118,7.61 5.107,-8.497 4.964,-24.603 c -0.024,-2.689 0.728,-3.949 4.144,-3.563 1.928,0.217 3.345,-0.103 3.283,-2.234 -0.067,-2.242 -1.912,-1.706 -3.366,-1.743 -9.031,-0.228 -8.981,-0.214 -8.929,7.15 C 0.153,-16.662 0.108,-8.331 0.108,0 Z"
           style="fill:#da413c;fill-opacity:1;fill-rule:nonzero;stroke:none"
           id="path30"
           inkscape:connector-curvature="0" /></g><g
         id="g32"
         transform="translate(910.8027,197.7383)"><path
           d="m 0,0 c 0,-9.762 -0.082,-19.523 0.06,-29.283 0.033,-2.348 -0.831,-3.211 -3.623,-2.954 -1.842,0.17 -3.722,0.079 -5.585,0.065 -1.497,-0.011 -2.554,0.203 -2.532,1.802 0.021,1.507 0.582,2.462 2.506,2.148 4.047,-0.659 4.471,1.103 4.451,3.884 -0.115,16.305 -0.117,32.611 0.014,48.916 0.022,2.638 -0.607,4.037 -4.118,3.579 -1.931,-0.253 -2.93,0.33 -2.879,2.176 0.052,1.856 1.374,1.77 2.915,1.822 8.817,0.3 8.817,0.315 8.817,-6.864 C 0.027,16.86 0.027,8.43 0.027,0 Z"
           style="fill:#de3b37;fill-opacity:1;fill-rule:nonzero;stroke:none"
           id="path34"
           inkscape:connector-curvature="0" /></g><g
         id="g36"
         transform="translate(855.5889,213.4824)"><path
           d="m 0,0 c -0.101,-2.861 -3.063,-5.177 -6.539,-5.112 -3.494,0.064 -6.28,2.496 -6.177,5.391 0.104,2.885 3.057,5.202 6.532,5.125 C -2.698,5.326 0.101,2.88 0,0"
           style="fill:#db3c36;fill-opacity:1;fill-rule:nonzero;stroke:none"
           id="path38"
           inkscape:connector-curvature="0" /></g><g
         id="g40"
         transform="translate(855.582,182.1777)"><path
           d="m 0,0 c 0.098,-2.885 -2.697,-5.258 -6.233,-5.291 -3.594,-0.034 -6.503,2.239 -6.509,5.088 -0.007,2.912 2.764,5.313 6.252,5.42 C -3.167,5.318 -0.096,2.85 0,0"
           style="fill:#d93e38;fill-opacity:1;fill-rule:nonzero;stroke:none"
           id="path42"
           inkscape:connector-curvature="0" /></g><g
         id="g44"
         transform="translate(868.4414,203.0498)"><path
           d="m 0,0 c 3.543,0.014 6.312,-2.278 6.291,-5.207 -0.022,-2.996 -2.66,-5.181 -6.288,-5.206 -3.669,-0.025 -6.202,2.097 -6.191,5.187 C -6.178,-2.14 -3.66,-0.014 0,0"
           style="fill:#dc3a37;fill-opacity:1;fill-rule:nonzero;stroke:none"
           id="path46"
           inkscape:connector-curvature="0" /></g><g
         id="g48"
         transform="translate(849.168,195.2949)"><path
           d="m 0,0 c -2.181,-0.04 -3.139,1.145 -2.998,2.777 0.133,1.55 1.415,2.286 3.315,2.215 C 2.311,4.95 3.155,3.936 3.113,2.423 3.068,0.824 1.807,0.033 0,0 m 0.156,7.763 c -3.502,0.032 -6.448,-2.26 -6.533,-5.08 -0.092,-3.017 2.9,-5.482 6.57,-5.413 3.37,0.062 6.396,2.592 6.369,5.325 C 6.534,5.531 3.81,7.73 0.156,7.763"
           style="fill:#d94142;fill-opacity:1;fill-rule:nonzero;stroke:none"
           id="path50"
           inkscape:connector-curvature="0" /></g><g
         id="g52"
         transform="translate(887.25,179.5645)"><path
           d="m 0,0 c -1.597,0.075 -2.633,0.858 -2.613,2.484 0.019,1.579 1.077,2.582 2.864,2.61 C 2.225,5.125 3.481,4.148 3.356,2.371 3.247,0.824 2.265,-0.059 0,0 M 0.547,7.909 C -2.94,7.956 -5.978,5.39 -5.97,2.401 c 0.009,-2.938 2.73,-5.106 6.384,-5.085 3.598,0.023 6.267,2.231 6.275,5.192 0.009,2.99 -2.68,5.355 -6.142,5.401"
           style="fill:#d34146;fill-opacity:1;fill-rule:nonzero;stroke:none"
           id="path54"
           inkscape:connector-curvature="0" /></g><g
         id="g56"
         transform="translate(867.8672,179.5596)"><path
           d="M 0,0 C -1.484,-0.013 -2.521,0.994 -2.514,2.436 -2.507,4.072 -1.24,5.05 0.818,4.957 2.727,4.871 3.635,3.871 3.539,2.338 3.442,0.793 2.396,-0.032 0,0 M 0.773,7.897 C -2.67,7.96 -5.566,5.605 -5.64,2.683 c -0.077,-3.055 2.47,-5.319 6.067,-5.394 3.639,-0.075 6.36,2.085 6.44,5.112 0.078,2.993 -2.628,5.434 -6.094,5.496"
           style="fill:#d14441;fill-opacity:1;fill-rule:nonzero;stroke:none"
           id="path58"
           inkscape:connector-curvature="0" /></g><g
         id="g60"
         transform="translate(887.6318,195.3145)"><path
           d="M 0,0 C -1.882,-0.046 -3.095,0.778 -3.118,2.348 -3.145,4.031 -1.999,4.984 0.107,4.989 2.118,4.999 3.002,4.08 2.968,2.501 2.935,0.915 1.885,0.046 0,0 M -0.108,7.766 C -3.703,7.703 -6.336,5.419 -6.28,2.408 c 0.054,-3.04 2.647,-5.101 6.433,-5.116 3.452,-0.014 6.181,2.381 6.135,5.384 -0.047,3.097 -2.634,5.156 -6.396,5.09"
           style="fill:#da3f43;fill-opacity:1;fill-rule:nonzero;stroke:none"
           id="path62"
           inkscape:connector-curvature="0" /></g><g
         id="g64"
         transform="translate(887.4766,211.0996)"><path
           d="m 0,0 c -1.788,0.089 -3.091,0.948 -2.974,2.548 0.123,1.665 1.366,2.651 3.446,2.51 C 2.397,4.928 3.195,3.857 3.187,2.178 3.034,0.669 1.825,-0.091 0,0 M 0.08,7.791 C -3.46,7.74 -6.281,5.394 -6.21,2.559 -6.133,-0.518 -3.176,-2.892 0.423,-2.769 3.884,-2.649 6.499,-0.28 6.44,2.684 6.383,5.649 3.652,7.842 0.08,7.791"
           style="fill:#d93d45;fill-opacity:1;fill-rule:nonzero;stroke:none"
           id="path66"
           inkscape:connector-curvature="0" /></g><g
         id="g68"
         transform="translate(868.4365,211.0537)"><path
           d="M 0,0 C -1.933,0.019 -3.08,0.92 -3.114,2.429 -3.146,3.884 -2.158,5.025 -0.249,5.108 1.832,5.199 2.969,4.245 3.014,2.486 3.058,0.791 1.788,0.17 0,0 M 0.013,7.825 C -3.602,7.812 -6.298,5.564 -6.304,2.559 -6.309,-0.355 -3.46,-2.746 0.03,-2.757 3.461,-2.768 6.304,-0.343 6.311,2.599 6.317,5.66 3.693,7.838 0.013,7.825"
           style="fill:#d44042;fill-opacity:1;fill-rule:nonzero;stroke:none"
           id="path70"
           inkscape:connector-curvature="0" /></g><g
         id="g792"
         transform="translate(866.4639,355.4258)"><path
           d="m 0,0 c 21.846,0 43.692,0.004 65.538,-0.002 5.178,-0.002 5.182,-0.018 5.185,-4.473 0.005,-10.546 -0.076,-21.092 0.066,-31.636 0.035,-2.583 -0.885,-3.481 -4.078,-3.476 -44.49,0.069 -88.982,0.071 -133.473,-0.007 -3.259,-0.006 -4.084,0.951 -4.053,3.501 0.128,10.877 0.158,21.757 -0.015,32.634 -0.047,2.916 1.368,3.512 4.494,3.501 C -44.225,-0.037 -22.112,0 0,0"
           style="fill:#5961ff;fill-opacity:1;fill-rule:nonzero;stroke:none"
           id="path794"
           inkscape:connector-curvature="0" /></g></g><g
       id="g796"
       transform="translate(534.792,433)"><path
         d="M 0,0 C 6.359,-2.15 12.457,-4.212 19.208,-6.494 12.907,-8.896 7.22,-11.1 1.5,-13.221 c -1.665,-0.617 -1.322,0.777 -1.371,1.616 -0.195,3.331 -0.183,3.336 -3.609,3.278 -9.865,-0.167 -19.729,-0.343 -29.593,-0.502 -1.069,-0.017 -2.343,-0.385 -2.272,1.489 0.067,1.749 1.327,1.262 2.239,1.281 8.824,0.191 17.65,0.339 26.475,0.503 1.385,0.026 2.774,0.156 4.152,0.083 2.018,-0.108 2.81,0.7 2.5,2.684 C -0.106,-1.973 0,-1.122 0,0"
         style="fill:#0048ce;fill-opacity:1;fill-rule:nonzero;stroke:none"
         id="path798"
         inkscape:connector-curvature="0" /></g><g
       id="g800"
       transform="translate(479.9248,423.9165)"><path
         d="m 0,0 c -3.511,-3.168 -7.679,-4.71 -12.014,-5.854 v -8.999 c 3.875,1.096 7.568,2.357 10.318,5.348 0.763,0.83 1.489,1.972 1.622,3.046 C 0.181,-4.387 0,-2.261 0,0 m -12.078,-2.598 c 3.207,0.431 8.081,2.726 10.101,4.962 0.849,0.939 1.714,2.153 1.893,3.344 0.308,2.057 0.085,4.194 0.085,6.369 -0.867,-0.643 -1.643,-1.276 -2.473,-1.826 -2.695,-1.784 -5.681,-2.902 -8.787,-3.725 -0.424,-0.112 -0.838,-0.126 -0.831,-0.77 0.028,-2.76 0.012,-5.521 0.012,-8.354 m 0.007,-15.581 c -0.097,-3.059 0.535,-6.344 -1.698,-9.146 4.21,0.873 8.157,2.124 11.41,4.945 1.085,0.941 2.128,2.051 2.249,3.495 0.181,2.178 0.047,4.383 0.047,6.356 -1.818,-1.071 -3.651,-2.332 -5.637,-3.268 -2.021,-0.953 -4.193,-1.584 -6.371,-2.382 m -0.008,27.637 c 0.835,0.244 1.579,0.433 2.304,0.679 2.918,0.994 5.715,2.217 7.925,4.46 1.276,1.294 2.118,2.809 1.883,4.7 -0.24,1.932 -1.44,3.294 -2.876,4.469 -1.873,1.531 -4.033,2.546 -6.303,3.319 -6.956,2.369 -14.088,2.756 -21.321,1.774 -1.578,-0.214 -3.134,-0.598 -4.7,-0.904 3.755,-0.503 7.43,-1.077 10.982,-2.267 3.575,-1.197 6.932,-2.785 9.556,-5.604 1.696,-1.822 2.64,-3.944 2.558,-6.483 -0.043,-1.342 -0.008,-2.685 -0.008,-4.143 m -3.043,-26.342 c -1.559,-1.002 -2.986,-2.072 -4.544,-2.894 -4.881,-2.578 -10.182,-3.611 -15.636,-3.949 -6.795,-0.421 -13.449,0.267 -19.844,2.749 -2.545,0.988 -4.888,2.336 -7.091,4.324 0,-1.9 0.041,-3.572 -0.012,-5.241 -0.051,-1.652 0.491,-3.083 1.635,-4.205 0.976,-0.958 2.047,-1.874 3.218,-2.567 3.949,-2.339 8.32,-3.373 12.834,-3.92 6.398,-0.774 12.703,-0.38 18.891,1.464 2.889,0.861 5.637,2.036 7.952,4.034 1.414,1.22 2.522,2.66 2.585,4.621 0.059,1.85 0.012,3.703 0.012,5.584 m -47.115,12.36 c 0,-1.812 0.057,-3.418 -0.015,-5.018 -0.086,-1.927 0.551,-3.605 1.998,-4.758 1.639,-1.307 3.382,-2.641 5.301,-3.416 9.725,-3.931 19.66,-4.02 29.666,-1.113 2.701,0.786 5.235,1.954 7.418,3.77 1.292,1.076 2.48,2.333 2.624,4.057 0.175,2.085 0.042,4.196 0.042,6.343 -0.135,-0.065 -0.234,-0.088 -0.3,-0.147 -2.4,-2.149 -5.218,-3.56 -8.241,-4.57 -7.06,-2.359 -14.309,-2.822 -21.645,-1.872 -6.079,0.787 -11.864,2.444 -16.848,6.724 m 0,12.047 c 0,-1.653 0.072,-3.198 -0.017,-4.733 -0.136,-2.34 0.899,-4.086 2.584,-5.541 1.887,-1.63 4.078,-2.728 6.42,-3.523 8.488,-2.884 17.095,-3.084 25.772,-1.015 3.562,0.85 6.955,2.129 9.791,4.557 1.116,0.955 2.222,2.06 2.348,3.544 0.188,2.209 0.049,4.447 0.049,6.41 -1.826,-1.069 -3.714,-2.372 -5.761,-3.335 -4.886,-2.3 -10.13,-3.2 -15.484,-3.342 -9.182,-0.242 -18.006,0.969 -25.702,6.978 m 24.418,-4.021 c 1.17,0.088 3.193,0.164 5.195,0.411 1.733,0.214 3.461,0.542 5.156,0.962 3.519,0.873 6.908,2.085 9.71,4.5 3.516,3.031 3.525,6.479 0.056,9.533 -1.901,1.673 -4.137,2.768 -6.514,3.56 -9.124,3.038 -18.318,3.096 -27.534,0.469 -2.895,-0.825 -5.643,-2.029 -7.944,-4.049 -3.409,-2.992 -3.466,-6.602 0.055,-9.437 1.6,-1.288 3.469,-2.34 5.366,-3.141 4.97,-2.1 10.247,-2.735 16.454,-2.808 m -27.457,-7.577 c 0,5.796 0.07,11.592 -0.028,17.386 -0.053,3.109 1.142,5.544 3.359,7.578 2.876,2.639 6.349,4.178 10.052,5.163 2.43,0.647 4.942,0.984 7.415,1.47 0.325,0.063 0.669,0.13 0.95,0.29 4.471,2.551 9.35,3.771 14.408,4.292 6.731,0.693 13.389,0.281 19.884,-1.768 3.005,-0.947 5.841,-2.251 8.303,-4.262 C 1.742,23.89 3.182,21.208 3.148,17.605 3.043,6.15 3.054,-5.307 3.144,-16.762 c 0.026,-3.352 -1.251,-5.928 -3.705,-8.033 -3.469,-2.977 -7.634,-4.472 -12.003,-5.469 -1.67,-0.382 -3.383,-0.568 -5.073,-0.862 -0.356,-0.062 -0.73,-0.151 -1.041,-0.326 -4.482,-2.523 -9.36,-3.745 -14.42,-4.262 -6.456,-0.66 -12.851,-0.297 -19.11,1.558 -3.217,0.953 -6.264,2.268 -8.909,4.385 -2.757,2.207 -4.291,4.925 -4.197,8.615 0.146,5.69 0.038,11.387 0.038,17.081"
         style="fill:#5961ff;fill-opacity:1;fill-rule:nonzero;stroke:none"
         id="path802"
         inkscape:connector-curvature="0" /></g><g
       id="g804"
       transform="translate(581.251,446.4253)"><path
         d="m 0,0 c 0.653,-1.067 1.161,-1.896 1.909,-3.12 0.46,1.806 0.784,3.079 1.2,4.713 C 1.923,0.985 1.088,0.557 0,0 m 24.473,-24.113 c 0.695,-1.084 1.242,-1.938 1.994,-3.111 0.445,1.847 0.772,3.206 1.199,4.976 -1.233,-0.72 -2.099,-1.226 -3.193,-1.865 m -22.474,0.292 c -1.284,0.92 -2.415,1.73 -3.692,2.644 v -5.351 c 1.333,0.977 2.424,1.777 3.692,2.707 m 36.724,-13.511 c 0.991,1.353 1.785,2.436 2.71,3.697 h -5.48 c 0.991,-1.323 1.8,-2.402 2.77,-3.697 M 26.329,-47.905 c -1.392,0.98 -2.519,1.774 -3.812,2.685 v -5.478 c 1.375,1.007 2.496,1.829 3.812,2.793 m 12.11,5.887 c -1.048,0 -2.097,0.029 -3.145,-0.005 -2.681,-0.088 -3.906,-1.338 -3.944,-4.051 -0.029,-2.097 -0.039,-4.195 0.006,-6.291 0.051,-2.361 1.268,-3.708 3.589,-3.814 2.288,-0.104 4.589,-0.099 6.878,-0.003 2.292,0.096 3.615,1.453 3.7,3.762 0.083,2.225 0.087,4.458 -0.002,6.682 -0.09,2.305 -1.439,3.592 -3.74,3.705 -1.111,0.055 -2.227,0.01 -3.342,0.015 M 13.826,-31.2 c 0.983,0 1.966,-0.014 2.949,0.003 2.815,0.048 4.064,1.272 4.109,4.082 0.033,2.096 0.05,4.196 -0.009,6.291 -0.066,2.407 -1.393,3.736 -3.826,3.811 -2.161,0.066 -4.327,0.07 -6.487,-10e-4 -2.391,-0.078 -3.766,-1.437 -3.851,-3.831 -0.079,-2.225 -0.09,-4.459 0.006,-6.683 0.098,-2.308 1.471,-3.582 3.766,-3.662 1.114,-0.039 2.229,-0.007 3.343,-0.01 M -3.643,0.198 c 0,1.114 0.028,2.229 -0.004,3.342 -0.07,2.338 -1.295,3.715 -3.596,3.818 -2.289,0.103 -4.589,0.1 -6.878,-0.003 -2.302,-0.103 -3.619,-1.463 -3.701,-3.762 -0.08,-2.224 -0.08,-4.457 -0.002,-6.682 0.08,-2.282 1.441,-3.606 3.741,-3.696 1.767,-0.069 3.538,-0.024 5.307,-0.023 4.139,0.005 5.132,0.981 5.136,5.041 0.001,0.655 0,1.31 -0.003,1.965 m 7.164,-23.172 c -0.347,6.968 3.221,9.531 9.432,9.207 -1.004,5.672 -3.888,9.495 -9.03,11.78 C 3.634,-2.981 3.427,-3.868 3.11,-4.715 2.944,-5.159 2.588,-5.531 2.317,-5.936 c -0.386,0.293 -0.86,0.52 -1.143,0.892 -0.492,0.645 -0.868,1.38 -1.532,2.471 -0.542,-6.309 -4.422,-7.703 -9.474,-7.449 V -23.14 h 6.407 c 0,1.011 -0.05,1.859 0.018,2.698 0.044,0.552 0.254,1.091 0.39,1.636 0.577,-0.215 1.223,-0.327 1.717,-0.663 1.507,-1.025 2.954,-2.137 4.821,-3.505 M 28.257,-47.37 c -0.277,3.023 0.147,5.531 2.336,6.816 1.981,1.164 4.405,1.574 6.758,2.358 -0.759,1.031 -1.738,2.314 -2.658,3.638 -0.438,0.63 -0.762,1.339 -1.138,2.013 0.699,0.313 1.398,0.627 2.097,0.94 -1.604,2.882 -4.102,4.95 -7.152,5.844 -0.296,-1.056 -0.546,-2.128 -0.91,-3.161 -0.153,-0.434 -0.547,-0.783 -0.831,-1.171 -0.378,0.317 -0.828,0.578 -1.116,0.962 -0.463,0.616 -0.82,1.313 -1.22,1.975 -0.358,-2.585 -1.111,-4.815 -3.236,-5.89 -1.904,-0.963 -4.157,-1.239 -6.439,-1.869 v -12.256 h 6.077 c 0,0.992 -0.058,1.849 0.022,2.692 0.05,0.543 0.305,1.068 0.469,1.601 0.526,-0.185 1.121,-0.267 1.563,-0.573 1.662,-1.151 3.273,-2.375 5.378,-3.919 m -39.789,37.42 c -1.11,0 -1.953,-0.038 -2.793,0.007 -3.838,0.204 -6.508,2.842 -6.654,6.679 -0.09,2.364 -0.091,4.736 10e-4,7.099 0.144,3.682 2.627,6.373 6.278,6.63 2.615,0.185 5.263,0.183 7.881,0.012 3.776,-0.247 6.221,-2.967 6.332,-6.75 0.017,-0.589 0.003,-1.178 0.003,-2.132 1.792,0.891 3.379,1.68 5.592,2.78 -0.27,-1.899 -0.46,-3.234 -0.684,-4.812 1.865,0 3.698,0.114 5.51,-0.042 1.17,-0.1 2.651,0.796 3.486,-0.816 C 12.301,-1.536 11.189,-1.82 10.061,-2 9.446,-2.098 8.803,-2.018 7.509,-2.018 c 4.138,-3.228 6.387,-6.942 7.029,-11.768 5.829,0.323 9.808,-1.677 9.545,-8.653 1.526,0.875 2.736,1.621 3.999,2.263 0.395,0.2 0.934,0.116 1.406,0.162 0.036,-0.425 0.158,-0.864 0.091,-1.273 -0.134,-0.834 -0.369,-1.652 -0.616,-2.704 3.624,-1.463 6.489,-3.865 8.724,-7.656 0.112,0.97 0.087,1.53 0.261,2.019 0.127,0.357 0.515,0.62 0.786,0.924 0.243,-0.324 0.62,-0.619 0.699,-0.98 0.136,-0.626 0.089,-1.293 0.132,-2.225 0.885,0 1.711,0.05 2.528,-0.017 0.549,-0.045 1.084,-0.255 1.626,-0.391 -0.203,-0.579 -0.298,-1.231 -0.631,-1.722 -1.024,-1.507 -2.14,-2.953 -3.523,-4.835 1.126,0 1.817,0.035 2.503,-0.005 3.679,-0.216 6.315,-2.653 6.57,-6.337 0.176,-2.552 0.169,-5.133 0.01,-7.686 -0.228,-3.681 -2.797,-6.199 -6.499,-6.416 -2.423,-0.143 -4.867,-0.137 -7.294,-0.018 -4.084,0.199 -6.587,2.908 -6.666,7.039 -0.02,1.091 -0.002,2.184 -0.002,3.772 -2,-1.467 -3.597,-2.671 -5.235,-3.818 -0.456,-0.32 -1.032,-0.469 -1.554,-0.696 -0.19,0.584 -0.468,1.156 -0.55,1.755 -0.097,0.702 -0.023,1.429 -0.023,2.393 -1.477,0 -2.837,-0.016 -4.195,0.003 -3.941,0.054 -3.616,-0.649 -3.629,3.728 -0.009,2.892 0.004,5.785 -0.006,8.678 -0.003,0.638 -0.06,1.276 -0.091,1.877 -8.472,1.471 -8.598,1.598 -9.56,9.733 -1.621,-1.173 -3.112,-2.3 -4.659,-3.342 -0.494,-0.331 -1.14,-0.435 -1.716,-0.642 -0.131,0.549 -0.325,1.094 -0.378,1.651 -0.067,0.696 -0.016,1.402 -0.016,2.218 -0.899,0.041 -1.539,0.089 -2.179,0.094 -1.366,0.014 -2.731,0.004 -4.349,0.004 0,-1.686 0.083,-3.183 -0.038,-4.663 -0.053,-0.64 -0.527,-1.246 -0.809,-1.868 -0.244,0.608 -0.694,1.212 -0.7,1.822 -0.054,5.719 -0.032,11.438 -0.032,17.158 z"
         style="fill:#5961ff;fill-opacity:1;fill-rule:nonzero;stroke:none"
         id="path806"
         inkscape:connector-curvature="0" /></g><g
       id="g808"
       transform="translate(620.0137,452.3936)"><path
         d="m 0,0 c -3.987,0.028 -7.294,-3.241 -7.299,-7.218 -0.006,-3.954 3.339,-7.288 7.282,-7.259 3.879,0.028 7.139,3.257 7.213,7.144 C 7.271,-3.396 3.966,-0.028 0,0 m -10.719,-7.963 c -0.963,0 -1.882,-0.051 -2.79,0.028 -0.312,0.027 -0.596,0.377 -0.894,0.581 0.275,0.304 0.524,0.835 0.831,0.872 0.963,0.114 1.947,0.042 2.985,0.042 0.192,0.708 0.348,1.263 0.493,1.82 1.278,4.899 5.884,8.166 10.931,7.75 5.053,-0.416 9.046,-4.497 9.491,-9.699 0.402,-4.709 -2.882,-9.461 -7.64,-10.607 -1.646,-0.396 -2.237,-1.026 -1.975,-2.6 0.021,-0.127 0.037,-0.273 -0.003,-0.391 -0.246,-0.723 -0.51,-1.44 -0.768,-2.16 -0.268,0.718 -0.785,1.445 -0.757,2.151 0.064,1.681 -0.213,2.598 -2.187,3.093 -3.774,0.948 -6.123,3.624 -7.122,7.42 -0.1,0.38 -0.186,0.765 -0.294,1.143 -0.035,0.122 -0.121,0.229 -0.301,0.557"
         style="fill:#5961ff;fill-opacity:1;fill-rule:nonzero;stroke:none"
         id="path810"
         inkscape:connector-curvature="0" /></g><g
       id="g812"
       transform="translate(571.2744,407.8086)"><path
         d="m 0,0 c -0.001,-1.045 0.047,-2.094 -0.034,-3.132 -0.022,-0.276 -0.445,-0.727 -0.68,-0.725 -0.266,0.003 -0.75,0.419 -0.757,0.666 -0.059,2.217 -0.06,4.437 0.001,6.654 0.007,0.237 0.518,0.461 0.794,0.691 C -0.45,3.88 -0.05,3.617 -0.029,3.329 0.047,2.224 0.001,1.11 0,0"
         style="fill:#5961ff;fill-opacity:1;fill-rule:nonzero;stroke:none"
         id="path814"
         inkscape:connector-curvature="0" /></g><g
       id="g816"
       transform="translate(571.4844,399.1089)"><path
         d="M 0,0 C 0.754,0 1.366,0.104 1.918,-0.034 2.321,-0.136 2.646,-0.555 3.006,-0.832 2.617,-1.079 2.255,-1.448 1.833,-1.542 1.271,-1.665 0.65,-1.65 0.079,-1.553 c -0.588,0.099 -1.57,0.275 -1.638,0.581 -0.202,0.912 -0.066,1.907 0.008,2.864 0.012,0.144 0.442,0.401 0.606,0.355 0.262,-0.076 0.59,-0.322 0.668,-0.566 C -0.112,1.16 -0.089,0.594 0,0"
         style="fill:#5961ff;fill-opacity:1;fill-rule:nonzero;stroke:none"
         id="path818"
         inkscape:connector-curvature="0" /></g><g
       id="g820"
       transform="translate(589.3662,397.5415)"><path
         d="m 0,0 c -0.785,0.001 -1.581,-0.072 -2.352,0.033 -0.363,0.05 -0.68,0.44 -1.018,0.676 0.356,0.286 0.699,0.795 1.072,0.819 1.499,0.093 3.01,0.079 4.511,0.003 C 2.557,1.514 2.88,1.087 3.212,0.85 2.861,0.566 2.543,0.112 2.151,0.037 1.458,-0.097 0.72,0 0,0"
         style="fill:#5961ff;fill-opacity:1;fill-rule:nonzero;stroke:none"
         id="path822"
         inkscape:connector-curvature="0" /></g><g
       id="g824"
       transform="translate(620.7207,423.4028)"><path
         d="m 0,0 c 0,-0.653 0.094,-1.326 -0.034,-1.953 -0.083,-0.404 -0.492,-0.741 -0.756,-1.108 -0.258,0.387 -0.71,0.759 -0.739,1.162 -0.095,1.299 -0.098,2.616 0.004,3.915 0.031,0.396 0.513,0.757 0.79,1.134 C -0.49,2.754 -0.113,2.382 -0.031,1.955 0.09,1.324 0,0.654 0,0"
         style="fill:#5961ff;fill-opacity:1;fill-rule:nonzero;stroke:none"
         id="path826"
         inkscape:connector-curvature="0" /></g><g
       id="g828"
       transform="translate(580.7119,397.5552)"><path
         d="M 0,0 C -0.722,0 -1.454,-0.069 -2.16,0.035 -2.439,0.076 -2.855,0.502 -2.857,0.754 -2.858,1.014 -2.438,1.488 -2.186,1.5 -0.681,1.57 0.831,1.57 2.337,1.499 2.603,1.486 3.037,1.036 3.046,0.776 3.054,0.528 2.631,0.081 2.355,0.045 1.582,-0.056 0.786,0.01 0,0.01 Z"
         style="fill:#5961ff;fill-opacity:1;fill-rule:nonzero;stroke:none"
         id="path830"
         inkscape:connector-curvature="0" /></g><g
       id="g832"
       transform="translate(600.624,444.0566)"><path
         d="m 0,0 c -1.033,0.402 -1.861,0.724 -2.69,1.046 0.884,0.295 1.763,0.798 2.656,0.826 C 0.816,1.898 1.683,1.428 2.541,1.177 1.707,0.791 0.873,0.404 0,0"
         style="fill:#5961ff;fill-opacity:1;fill-rule:nonzero;stroke:none"
         id="path834"
         inkscape:connector-curvature="0" /></g><g
       id="g836"
       transform="translate(607.5801,398.52)"><path
         d="M 0,0 C -1.316,-0.964 -2.438,-1.786 -3.813,-2.793 V 2.686 C -2.52,1.774 -1.392,0.98 0,0"
         style="fill:#5961ff;fill-opacity:1;fill-rule:nonzero;stroke:none"
         id="path838"
         inkscape:connector-curvature="0" /></g><g
       id="g840"
       transform="translate(619.9736,409.0937)"><path
         d="M 0,0 C -0.97,1.294 -1.778,2.374 -2.77,3.696 H 2.71 C 1.785,2.436 0.991,1.353 0,0"
         style="fill:#5961ff;fill-opacity:1;fill-rule:nonzero;stroke:none"
         id="path842"
         inkscape:connector-curvature="0" /></g><g
       id="g844"
       transform="translate(583.25,422.604)"><path
         d="M 0,0 C -1.268,-0.93 -2.359,-1.729 -3.692,-2.707 V 2.645 C -2.415,1.73 -1.284,0.92 0,0"
         style="fill:#5961ff;fill-opacity:1;fill-rule:nonzero;stroke:none"
         id="path846"
         inkscape:connector-curvature="0" /></g><g
       id="g848"
       transform="translate(605.7236,422.312)"><path
         d="M 0,0 C 1.095,0.64 1.96,1.145 3.193,1.866 2.767,0.096 2.439,-1.264 1.994,-3.111 1.242,-1.937 0.695,-1.084 0,0"
         style="fill:#5961ff;fill-opacity:1;fill-rule:nonzero;stroke:none"
         id="path850"
         inkscape:connector-curvature="0" /></g><g
       id="g852"
       transform="translate(581.251,446.4253)"><path
         d="M 0,0 C 1.088,0.557 1.923,0.985 3.109,1.593 2.693,-0.041 2.369,-1.314 1.909,-3.12 1.161,-1.896 0.653,-1.067 0,0"
         style="fill:#5961ff;fill-opacity:1;fill-rule:nonzero;stroke:none"
         id="path854"
         inkscape:connector-curvature="0" /></g><path
       d="m 753,424 h 3 v -91.116 h -3 z"
       style="fill:#0048ce;fill-opacity:1;fill-rule:nonzero;stroke:none"
       id="path856"
       inkscape:connector-curvature="0" /><path
       d="M 756,420.355 H 638 V 424 h 118 z"
       style="fill:#0048ce;fill-opacity:1;fill-rule:nonzero;stroke:none"
       id="path858"
       inkscape:connector-curvature="0" /><g
       id="g916"
       transform="matrix(1.5395451,0,0,1,1135.3772,663.85351)"><path
         d="m 0,0 c 0,19.411 -15.735,35.146 -35.146,35.146 -0.168,0 -0.333,-0.01 -0.5,-0.012 v 0.512 h -211 v -0.538 c -18.715,-0.786 -33.647,-16.2 -33.647,-35.108 0,-0.149 0.009,-0.297 0.011,-0.445 h -0.011 v -147.706 h 0.011 c 0.233,-18.704 15.069,-33.884 33.636,-34.664 v -0.539 h 14.5 196.5 v 0.513 c 0.167,-0.003 0.332,-0.013 0.5,-0.013 19.261,0 34.896,15.498 35.135,34.703 H 0 V -0.445 H -0.011 C -0.009,-0.297 0,-0.149 0,0 Z"
         style="fill:none;stroke:#d04146;stroke-width:1;stroke-linecap:butt;stroke-linejoin:miter;stroke-miterlimit:10;stroke-dasharray:12;stroke-dashoffset:0;stroke-opacity:1"
         id="path918"
         inkscape:connector-curvature="0" /></g><g
       id="g920"
       transform="translate(263.1255,291.9727)"><path
         d="m 0,0 c -0.008,-0.312 -0.016,-0.584 -0.366,-0.765 -3.175,-1.643 -6.024,-3.801 -9.01,-5.741 -6.565,-4.265 -13.089,-8.596 -19.636,-12.89 -0.278,-0.182 -0.572,-0.576 -0.895,-0.42 -0.394,0.189 -0.246,0.682 -0.248,1.054 -0.009,1.997 0.035,3.996 -0.023,5.992 -0.024,0.843 0.291,1.097 1.063,0.999 0.265,-0.034 0.54,0.016 0.806,-0.01 0.704,-0.069 1.113,0.027 1.118,0.943 0.005,0.943 -0.451,0.929 -1.13,0.928 -8.797,-0.013 -17.594,-0.009 -26.391,-0.008 -1.551,0 -1.553,0.003 -1.553,1.51 -10e-4,5.378 0.031,10.757 -0.026,16.135 -0.011,1.106 0.379,1.369 1.398,1.359 4.417,-0.04 8.836,-0.017 13.253,-0.017 4.457,0 8.913,0.016 13.369,-0.014 0.756,-0.006 1.073,0.133 1.076,0.988 0.003,0.862 -0.399,0.897 -1.053,0.897 -1.911,0 -1.911,0.019 -1.911,1.963 0,1.691 -0.005,3.381 0.003,5.071 0.002,0.415 -0.147,0.966 0.25,1.175 0.328,0.173 0.678,-0.258 0.995,-0.46 C -19.836,12.936 -10.766,7.176 -1.691,1.423 -1.308,1.18 -0.956,0.877 -0.475,0.797 -0.04,0.726 0.01,0.369 0,0 m 0.005,2.638 c -0.348,0.151 -0.682,0.344 -1.003,0.549 -9.195,5.834 -18.388,11.673 -27.581,17.511 -1.439,0.913 -2.942,0.31 -3.334,-1.355 -0.087,-0.368 -0.098,-0.759 -0.1,-1.14 -0.009,-2.035 -0.06,-4.071 0.019,-6.102 0.039,-0.992 -0.298,-1.196 -1.229,-1.191 -7.255,0.037 -14.51,0.002 -21.765,0.035 -1.446,0.007 -2.541,-0.41 -3.137,-1.795 V -9.984 c 0.383,-1.425 1.09,-2.028 2.564,-2.171 0.498,-0.048 0.998,-0.031 1.497,-0.031 6.447,-10e-4 12.896,10e-4 19.344,-10e-4 2.473,-0.001 2.276,0.108 2.288,-2.343 0.007,-1.42 -0.029,-2.841 0.014,-4.261 0.064,-2.12 0.634,-2.787 2.649,-3.182 h 0.461 c 0.088,0.347 0.427,0.414 0.668,0.574 8.231,5.42 16.465,10.836 24.703,16.246 1.312,0.861 2.587,1.809 3.987,2.499 1.169,0.576 1.849,1.27 1.824,2.61 C 1.845,1.459 1.497,1.99 0.005,2.638"
         style="fill:#5961ff;fill-opacity:1;fill-rule:nonzero;stroke:none"
         id="path922"
         inkscape:connector-curvature="0" /></g></g></svg>
